<?xml version="1.0" encoding="UTF-8"?>
<svg version="1.1" xmlns="http://www.w3.org/2000/svg" width="887" height="281">
<path d="M0 0 C1.98 0.99 1.98 0.99 4 2 C0.38112316 6.34265221 -3.35446997 7.24659046 -8.7578125 8.36328125 C-24.07617789 12.71327003 -41.97649736 21.92980838 -50.1796875 36.02734375 C-51.82942655 39.99457338 -51.62643646 44.03066381 -50.34765625 48.05078125 C-44.09134256 61.87911409 -28.4524833 69.72223118 -15 75 C-4.14686602 79.0836518 6.86342523 82.76974205 18 86 C18.69335449 86.20367187 19.38670898 86.40734375 20.10107422 86.6171875 C28.34137583 89.02777261 36.46129625 91.28850093 44.9765625 92.50585938 C47.97505832 92.99592361 50.87717176 93.65427352 53.828125 94.375 C61.64647124 96.20209255 69.51931984 97.57239018 77.4375 98.875 C78.21310272 99.00283875 78.98870544 99.13067749 79.78781128 99.26239014 C178.24537287 115.4050986 280.90479846 118.01063469 389 108 C390.24414673 107.87661255 390.24414673 107.87661255 391.51342773 107.75073242 C397.59442967 107.14552497 403.67304256 106.51953026 409.75 105.875 C410.56460693 105.78873352 411.37921387 105.70246704 412.21850586 105.61358643 C414.49522751 105.36991788 416.77115282 105.12000269 419.046875 104.8671875 C420.34463867 104.72394043 421.64240234 104.58069336 422.97949219 104.43310547 C425.91402891 104.17454135 425.91402891 104.17454135 428 103 C430.87910588 102.76725791 433.74146495 102.58027243 436.625 102.4375 C437.42679688 102.39431641 438.22859375 102.35113281 439.0546875 102.30664062 C441.0362511 102.20048543 443.01810271 102.09973145 445 102 C444 105 444 105 442 107 C436.45189621 108.46861571 430.74145019 109.31034866 425 109 C425 109.66 425 110.32 425 111 C423.98015015 111.21148682 423.98015015 111.21148682 422.93969727 111.42724609 C419.81382924 112.07584578 416.68816376 112.72541664 413.5625 113.375 C412.49322266 113.59671875 411.42394531 113.8184375 410.32226562 114.046875 C405.66945318 115.01443233 401.0203928 115.98724053 396.38671875 117.04296875 C391.36876373 118.16677272 386.31656404 119.06290679 381.25 119.9375 C380.24702881 120.11079834 379.24405762 120.28409668 378.21069336 120.46264648 C368.166412 122.17552063 358.09863869 123.64873486 348 125 C347.1032959 125.1222998 346.2065918 125.24459961 345.28271484 125.37060547 C338.19769052 126.33067308 331.1043458 127.19561587 324 128 C322.91090332 128.12375 321.82180664 128.2475 320.69970703 128.375 C276.17833101 133.26452049 231.37370305 134.28683622 186.625 134.25 C185.74126331 134.2496664 184.85752663 134.24933281 183.94701004 134.24898911 C165.78285427 134.23980833 147.64012193 134.19585413 129.49731445 133.21606445 C123.3315318 132.89027753 117.17318291 132.90371119 111 133 C121.78035806 135.21779244 132.71118031 136.45757154 143.625 137.8125 C144.6686673 137.94250397 145.71233459 138.07250793 146.78762817 138.20645142 C233.72256837 148.99118964 320.94276402 153.23210344 592 145 C592.91328064 144.91407593 593.82656128 144.82815186 594.76751709 144.73962402 C625.79665089 143.95740939 625.79665089 143.95740939 655 137 C656.70363822 136.77377919 658.41328701 136.59111527 660.125 136.4375 C661.03507813 136.35371094 661.94515625 136.26992187 662.8828125 136.18359375 C663.58148437 136.12300781 664.28015625 136.06242188 665 136 C665.33 136.99 665.66 137.98 666 139 C665.01 139 664.02 139 663 139 C662.67 139.66 662.34 140.32 662 141 C659.19466279 141.82521207 656.43408511 142.52742428 653.5859375 143.171875 C652.71777405 143.37473618 651.8496106 143.57759735 650.95513916 143.78660583 C648.09723553 144.45078193 645.23646534 145.10135185 642.375 145.75 C641.39440613 145.9744278 640.41381226 146.19885559 639.40350342 146.43008423 C561.61934561 164.223851 482.32949939 172.38200366 402.75 176.75 C401.67900055 176.80916595 400.6080011 176.86833191 399.50454712 176.92929077 C392.00501239 177.33655432 384.50398599 177.68583823 377 178 C375.87424561 178.0483902 374.74849121 178.0967804 373.58862305 178.14663696 C347.28728356 179.2320609 320.97324344 179.18746655 294.65380859 179.18530273 C289.59420135 179.18522219 284.53468604 179.19206547 279.47509766 179.20581055 C232.67263895 179.33072014 185.88848037 178.45110981 139.1875 175.1875 C137.95343414 175.10385193 136.71936829 175.02020386 135.44790649 174.934021 C81.4738149 171.26419384 27.51454254 165.76249644 -25.78869629 156.38745117 C-28.01296384 155.99772855 -30.23827608 155.61450698 -32.46386719 155.23242188 C-75.46810614 147.81128334 -120.69296611 138.6281051 -160 119 C-160.6501709 118.68498535 -161.3003418 118.3699707 -161.97021484 118.04541016 C-175.89391781 111.26735292 -189.74525114 102.78597376 -196.9375 88.5 C-198.83822044 82.23880324 -198.79937899 76.18655865 -196.23828125 70.10546875 C-193.52711852 65.49563685 -189.75803995 61.76440951 -186 58 C-185.46632812 57.45472656 -184.93265625 56.90945312 -184.3828125 56.34765625 C-172.14589735 44.90328742 -155.3534993 38.86086301 -140 33 C-139.1032959 32.65614258 -138.2065918 32.31228516 -137.28271484 31.95800781 C-109.17630959 21.40826466 -78.87452791 14.82020175 -49.38745117 9.44458008 C-47.0883034 9.01644345 -44.80120102 8.54711451 -42.51171875 8.0703125 C-37.75314412 7.11065103 -32.97340966 6.31205212 -28.18359375 5.52734375 C-27.00111053 5.33358406 -27.00111053 5.33358406 -25.79473877 5.13591003 C-22.49927285 4.59747009 -19.20348103 4.06113591 -15.90698242 3.52905273 C-13.47776023 3.13619107 -11.04939048 2.73837973 -8.62109375 2.33984375 C-7.49470741 2.16013283 -7.49470741 2.16013283 -6.3455658 1.97679138 C-2.87796511 1.65666317 -2.87796511 1.65666317 0 0 Z " fill="#0A6EAB" transform="translate(210,89)"/>
<path d="M0 0 C1.98 0.99 1.98 0.99 4 2 C0.38112316 6.34265221 -3.35446997 7.24659046 -8.7578125 8.36328125 C-24.07617789 12.71327003 -41.97649736 21.92980838 -50.1796875 36.02734375 C-51.82942655 39.99457338 -51.62643646 44.03066381 -50.34765625 48.05078125 C-44.09134256 61.87911409 -28.4524833 69.72223118 -15 75 C-4.14686602 79.0836518 6.86342523 82.76974205 18 86 C18.69335449 86.20367187 19.38670898 86.40734375 20.10107422 86.6171875 C28.34137583 89.02777261 36.46129625 91.28850093 44.9765625 92.50585938 C47.97505832 92.99592361 50.87717176 93.65427352 53.828125 94.375 C61.64647124 96.20209255 69.51931984 97.57239018 77.4375 98.875 C78.21310272 99.00283875 78.98870544 99.13067749 79.78781128 99.26239014 C178.24537287 115.4050986 280.90479846 118.01063469 389 108 C390.24414673 107.87661255 390.24414673 107.87661255 391.51342773 107.75073242 C397.59442967 107.14552497 403.67304256 106.51953026 409.75 105.875 C410.56460693 105.78873352 411.37921387 105.70246704 412.21850586 105.61358643 C414.49522751 105.36991788 416.77115282 105.12000269 419.046875 104.8671875 C420.34463867 104.72394043 421.64240234 104.58069336 422.97949219 104.43310547 C425.91402891 104.17454135 425.91402891 104.17454135 428 103 C430.87910588 102.76725791 433.74146495 102.58027243 436.625 102.4375 C437.42679688 102.39431641 438.22859375 102.35113281 439.0546875 102.30664062 C441.0362511 102.20048543 443.01810271 102.09973145 445 102 C444 105 444 105 442 107 C436.45189621 108.46861571 430.74145019 109.31034866 425 109 C425 109.66 425 110.32 425 111 C423.98015015 111.21148682 423.98015015 111.21148682 422.93969727 111.42724609 C419.81382924 112.07584578 416.68816376 112.72541664 413.5625 113.375 C412.49322266 113.59671875 411.42394531 113.8184375 410.32226562 114.046875 C405.66945318 115.01443233 401.0203928 115.98724053 396.38671875 117.04296875 C391.36876373 118.16677272 386.31656404 119.06290679 381.25 119.9375 C380.24702881 120.11079834 379.24405762 120.28409668 378.21069336 120.46264648 C368.166412 122.17552063 358.09863869 123.64873486 348 125 C347.1032959 125.1222998 346.2065918 125.24459961 345.28271484 125.37060547 C338.19769052 126.33067308 331.1043458 127.19561587 324 128 C322.91090332 128.12375 321.82180664 128.2475 320.69970703 128.375 C276.17833101 133.26452049 231.37370305 134.28683622 186.625 134.25 C185.74126331 134.2496664 184.85752663 134.24933281 183.94701004 134.24898911 C165.76812794 134.23980088 147.61197573 134.19334229 129.45458984 133.20996094 C124.22226118 132.93347718 119.01212095 132.98051215 113.7734375 133.03125 C110.41823767 132.99344493 107.2916404 132.62697912 104 132 C104 132.33 104 132.66 104 133 C98.96232691 133.13668105 94.30120091 132.65148875 89.375 131.6875 C73.48501043 128.75532559 57.47827382 126.77305405 41.4375 124.875 C40.71120392 124.78864288 39.98490784 124.70228577 39.23660278 124.61331177 C32.34289187 123.7967422 25.46071836 123.00961719 18.53515625 122.5078125 C14.29500411 122.17614636 10.30160749 121.52578219 6.17236328 120.52197266 C2.29217078 119.58964499 -1.63989973 118.91601543 -5.5625 118.1875 C-22.49972302 114.99099186 -39.42006333 111.7519468 -56 107 C-57.19496094 106.6596875 -58.38992187 106.319375 -59.62109375 105.96875 C-117.50793875 89.37229039 -117.50793875 89.37229039 -130.375 66.5625 C-131.88865897 60.3564982 -131.70935179 54.64761564 -128.5 49.03125 C-121.94528546 40.15507407 -112.54054212 35.03464753 -103 30 C-101.92105469 29.40058594 -101.92105469 29.40058594 -100.8203125 28.7890625 C-92.44423787 24.29546023 -83.11236693 21.56413016 -74 19 C-70.65912156 17.97885492 -67.32374949 16.94100307 -63.98828125 15.90234375 C-61.66641707 15.20123182 -59.35939969 14.55684129 -57 14 C-57.804375 14.165 -58.60875 14.33 -59.4375 14.5 C-63.65887352 15.09247348 -67.74664545 15.08506709 -72 15 C-72 14.67 -72 14.34 -72 14 C-67.80078125 13.16015625 -67.80078125 13.16015625 -63.6015625 12.3203125 C-62.45429688 12.09085938 -61.30703125 11.86140625 -60.125 11.625 C-56.78230567 10.95646113 -53.43961655 10.28792763 -50.09643555 9.62182617 C-48.26321105 9.25367804 -46.43091548 8.88076269 -44.60083008 8.49731445 C-35.09606909 6.52164607 -25.4888489 5.07564826 -15.90698242 3.52905273 C-13.47776023 3.13619107 -11.04939048 2.73837973 -8.62109375 2.33984375 C-7.87016953 2.22003647 -7.1192453 2.10022919 -6.3455658 1.97679138 C-2.87796511 1.65666317 -2.87796511 1.65666317 0 0 Z " fill="#F3972C" transform="translate(210,89)"/>
<path d="M0 0 C6.6 0 13.2 0 20 0 C24.01956957 11.9935265 28.02071904 23.99304342 32 36 C32.45478729 37.37212646 32.45478729 37.37212646 32.91876221 38.77197266 C34.74643869 44.29056001 36.56597153 49.8117426 38.37588501 55.33618164 C38.95778306 57.10948461 39.54174188 58.8821127 40.1277771 60.65405273 C40.95023927 63.14254753 41.76512286 65.63340119 42.578125 68.125 C42.82442154 68.86512329 43.07071808 69.60524658 43.32447815 70.36779785 C44.43225539 73.78951992 45 76.36076004 45 80 C39.72 80 34.44 80 29 80 C26.80421122 75.60842245 25.2124355 71.93067802 23.8125 67.3125 C23.46832031 66.19488281 23.12414062 65.07726562 22.76953125 63.92578125 C22 61 22 61 22 58 C14.08 58.33 6.16 58.66 -2 59 C-3.93308351 65.53595046 -3.93308351 65.53595046 -5.85913086 72.07397461 C-6.10026611 72.88358643 -6.34140137 73.69319824 -6.58984375 74.52734375 C-6.83597412 75.35999756 -7.08210449 76.19265137 -7.33569336 77.05053711 C-8 79 -8 79 -9 80 C-11.69654854 80.07319621 -14.36691458 80.09242537 -17.0625 80.0625 C-17.82111328 80.05798828 -18.57972656 80.05347656 -19.36132812 80.04882812 C-21.24091871 80.0370068 -23.12046899 80.01907078 -25 80 C-23.70944227 72.34368134 -21.53597962 65.20225763 -19 57.875 C-14.94806811 45.96728178 -11.14460043 33.99889983 -7.45117188 21.97607422 C-5.1672435 14.56789552 -2.71692602 7.26171532 0 0 Z M9 16 C7.83124342 19.78695388 6.67392847 23.57719572 5.52709961 27.37084961 C5.13537419 28.66086712 4.74053656 29.94994386 4.3425293 31.23803711 C3.77095114 33.08977909 3.21147892 34.94524418 2.65234375 36.80078125 C2.31195068 37.91622314 1.97155762 39.03166504 1.62084961 40.1809082 C0.73450513 43.05829292 0.73450513 43.05829292 2 46 C4.10409639 46.02701408 6.20829178 46.04640223 8.3125 46.0625 C9.48425781 46.07410156 10.65601563 46.08570312 11.86328125 46.09765625 C15.03059195 46.14899898 15.03059195 46.14899898 18 45 C16.60900162 38.36237179 14.86285116 31.91941658 12.875 25.4375 C12.45927734 24.06754883 12.45927734 24.06754883 12.03515625 22.66992188 C11.35973591 20.44569283 10.68131033 18.22243047 10 16 C9.67 16 9.34 16 9 16 Z " fill="#373334" transform="translate(250,14)"/>
<path d="M0 0 C5.61 0 11.22 0 17 0 C22.14947409 15.68682384 27.07860407 31.38567429 31.5234375 47.28613281 C31.99136719 48.95820801 31.99136719 48.95820801 32.46875 50.6640625 C32.74138672 51.64842285 33.01402344 52.6327832 33.29492188 53.64697266 C33.92388387 55.99081778 33.92388387 55.99081778 35 58 C35.29656494 57.02466309 35.59312988 56.04932617 35.89868164 55.04443359 C41.49078768 36.66110013 47.09898952 18.2870905 53 0 C58.61 0 64.22 0 70 0 C69.24214377 5.30499364 68.41821935 9.13224684 66.63671875 14.04296875 C66.28683647 15.01753777 66.28683647 15.01753777 65.92988586 16.01179504 C65.18868446 18.07268784 64.43850684 20.13016266 63.6875 22.1875 C61.78106425 27.45453914 59.88505356 32.72527118 58 38 C57.58830566 39.15064941 57.17661133 40.30129883 56.75244141 41.48681641 C56.38683105 42.5391748 56.0212207 43.5915332 55.64453125 44.67578125 C55.32460205 45.58884033 55.00467285 46.50189941 54.67504883 47.44262695 C53.98066294 50.07325703 53.87158465 52.29229681 54 55 C53.01 55.495 53.01 55.495 52 56 C51.08886335 58.00914393 51.08886335 58.00914393 50.375 60.375 C50.11460937 61.16648438 49.85421875 61.95796875 49.5859375 62.7734375 C48.87275335 65.09980909 48.87275335 65.09980909 49 68 C48.34 68 47.68 68 47 68 C46.8453125 69.299375 46.8453125 69.299375 46.6875 70.625 C46 74 46 74 43 80 C37.06 80 31.12 80 25 80 C22.2890592 73.74398276 20.18511476 67.44638795 18.2734375 60.9140625 C15.11465262 50.25670518 11.70780499 39.688426 8.25 29.125 C7.66775785 27.33991253 7.08572603 25.55475643 6.50390625 23.76953125 C5.44558594 20.52449266 4.38660341 17.27967458 3.32519531 14.03564453 C3.09981079 13.34279358 2.87442627 12.64994263 2.64221191 11.93609619 C2.06153079 10.18549877 1.44447639 8.44706949 0.82324219 6.71044922 C0 4 0 4 0 0 Z " fill="#383435" transform="translate(502,14)"/>
<path d="M0 0 C6.50072506 5.04934367 11.08018189 10.98494193 12.546875 19.23046875 C13.45952031 26.97257218 13.38301264 35.12496761 11.08203125 42.6171875 C8.6875 45.3359375 8.6875 45.3359375 6.08203125 47.6171875 C5.55480469 48.16503906 5.02757812 48.71289062 4.484375 49.27734375 C-1.24100925 54.75844494 -9.0634918 57.68001575 -16.98046875 58.0546875 C-26.48073719 56.99910212 -32.53510647 54.82813117 -39.7265625 48.359375 C-45.05341993 41.69368175 -46.62916193 35.092974 -46.48046875 26.6796875 C-46.46951172 25.80159424 -46.45855469 24.92350098 -46.44726562 24.01879883 C-46.14270614 14.91162432 -43.71748452 9.01783279 -37.10546875 2.6796875 C-27.06888808 -5.17180734 -11.16398755 -6.73262622 0 0 Z M-26.40234375 12.2890625 C-30.59234301 19.16893782 -30.93218743 25.70814274 -29.91796875 33.6171875 C-28.71020393 37.65124463 -26.96636242 40.49649082 -24.10546875 43.5546875 C-19.77688141 45.65714421 -16.30498964 46.0795278 -11.73046875 44.5546875 C-7.82288595 41.86279713 -5.67013274 38.87367946 -4.16796875 34.3671875 C-3.41388371 26.07225205 -3.52744945 19.00247459 -7.91796875 11.6171875 C-10.7118678 8.96415731 -12.58670947 8.21940262 -16.41796875 8.3046875 C-17.5471875 8.31048828 -17.5471875 8.31048828 -18.69921875 8.31640625 C-22.06537762 8.77273413 -24.13711317 9.73769753 -26.40234375 12.2890625 Z " fill="#383435" transform="translate(792.91796875,38.3828125)"/>
<path d="M0 0 C5.39859593 3.06574186 9.25956593 8.04423875 11.03025818 14.01361084 C11.49578984 16.23320523 11.600819 18.20387406 11.59399414 20.46972656 C11.59391861 21.31029602 11.59384308 22.15086548 11.59376526 23.01690674 C11.58860397 23.91496033 11.58344269 24.81301392 11.578125 25.73828125 C11.57671005 26.66485535 11.5752951 27.59142944 11.57383728 28.54608154 C11.56824699 31.50080617 11.55569625 34.45545458 11.54296875 37.41015625 C11.5379525 39.41536349 11.53338981 41.42057192 11.52929688 43.42578125 C11.51828074 48.33726888 11.50102275 53.24869965 11.48046875 58.16015625 C6.20046875 58.16015625 0.92046875 58.16015625 -4.51953125 58.16015625 C-4.53411377 57.04044434 -4.54869629 55.92073242 -4.5637207 54.76708984 C-4.62188011 50.59587351 -4.69911148 46.42518706 -4.78198242 42.25439453 C-4.81514898 40.45239896 -4.8432065 38.65030158 -4.8659668 36.84814453 C-4.89966557 34.25118802 -4.95198774 31.65515759 -5.0078125 29.05859375 C-5.01420242 28.25835785 -5.02059235 27.45812195 -5.0271759 26.63363647 C-5.15355132 21.77929004 -5.84417237 18.36938755 -8.51953125 14.16015625 C-12.06954637 12.38514869 -16.005152 12.73949535 -19.76953125 13.78515625 C-22.77284958 16.14490637 -24.2449499 19.36045485 -24.81967163 23.12738037 C-24.96008815 25.36840602 -25.01281705 27.59451033 -25.03125 29.83984375 C-25.0492012 30.65260773 -25.0671524 31.4653717 -25.08564758 32.30276489 C-25.13951483 34.88017705 -25.17356961 37.45740655 -25.20703125 40.03515625 C-25.24022524 41.79038987 -25.27471682 43.54559946 -25.31054688 45.30078125 C-25.39765401 49.58726242 -25.45792097 53.87293061 -25.51953125 58.16015625 C-30.79953125 58.16015625 -36.07953125 58.16015625 -41.51953125 58.16015625 C-41.51953125 39.02015625 -41.51953125 19.88015625 -41.51953125 0.16015625 C-36.89953125 0.16015625 -32.27953125 0.16015625 -27.51953125 0.16015625 C-27.18953125 2.14015625 -26.85953125 4.12015625 -26.51953125 6.16015625 C-25.15828125 4.98453125 -25.15828125 4.98453125 -23.76953125 3.78515625 C-17.10237984 -1.97283815 -8.37711058 -2.79237019 0 0 Z " fill="#363234" transform="translate(855.51953125,35.83984375)"/>
<path d="M0 0 C6.7547889 5.45207961 9.87861543 11.86339801 11.640625 20.32421875 C11.73099774 22.03066877 11.770726 23.74038498 11.765625 25.44921875 C11.76949219 26.75246094 11.76949219 26.75246094 11.7734375 28.08203125 C11.640625 30.32421875 11.640625 30.32421875 10.640625 32.32421875 C-1.569375 32.65421875 -13.779375 32.98421875 -26.359375 33.32421875 C-26.359375 34.64421875 -26.359375 35.96421875 -26.359375 37.32421875 C-24.874375 37.81921875 -24.874375 37.81921875 -23.359375 38.32421875 C-23.359375 38.98421875 -23.359375 39.64421875 -23.359375 40.32421875 C-17.98028207 45.30486035 -11.25373232 44.57597899 -4.359375 44.32421875 C-0.68276538 44.05497209 2.972618 43.7004246 6.640625 43.32421875 C7.300625 46.95421875 7.960625 50.58421875 8.640625 54.32421875 C-3.5799736 58.5829122 -15.03598555 60.36659327 -27.359375 55.32421875 C-33.92592008 51.78838678 -39.55104434 46.10910002 -41.8828125 38.875 C-43.88702202 28.14755069 -43.15433804 17.76734255 -37.359375 8.32421875 C-28.91979959 -2.77859154 -12.69766844 -7.86703371 0 0 Z M-23.359375 11.32421875 C-26.01419909 14.80295376 -26.47026128 16.87865017 -27.359375 21.32421875 C-19.769375 21.32421875 -12.179375 21.32421875 -4.359375 21.32421875 C-4.26532045 15.07435516 -4.26532045 15.07435516 -7.359375 10.32421875 C-12.61343316 6.51955594 -18.24968405 8.0313068 -23.359375 11.32421875 Z " fill="#3A3637" transform="translate(730.359375,37.67578125)"/>
<path d="M0 0 C1.13381104 -0.01450195 1.13381104 -0.01450195 2.29052734 -0.02929688 C9.46275537 0.07772781 15.63215882 2.18133879 20.75 7.4375 C24.46162506 13.76137664 25.34943945 19.49221985 25.359375 26.72265625 C25.37591125 27.66435165 25.39244751 28.60604706 25.40948486 29.57627869 C25.45763419 32.55092098 25.47926194 35.52505334 25.5 38.5 C25.52818736 40.53062416 25.55811862 42.56122491 25.58984375 44.59179688 C25.66338406 49.54032253 25.71316012 54.48857058 25.75 59.4375 C20.8 59.4375 15.85 59.4375 10.75 59.4375 C10.255 57.4575 10.255 57.4575 9.75 55.4375 C9.21890625 55.78683594 8.6878125 56.13617188 8.140625 56.49609375 C7.08101563 57.17865234 7.08101563 57.17865234 6 57.875 C5.30390625 58.32746094 4.6078125 58.77992187 3.890625 59.24609375 C-0.86630702 61.89365628 -5.95692389 62.1317849 -11.26953125 61.01171875 C-16.7745546 59.29600402 -20.36353113 56.44886127 -23.25 51.4375 C-25.57772759 45.44483961 -25.71239276 40.36493096 -23.28125 34.40234375 C-19.69870427 27.57650852 -12.41714946 24.15286734 -5.33203125 21.80078125 C-2.53305667 21.31240482 0.16101622 21.34414148 3 21.375 C4.07765625 21.38402344 5.1553125 21.39304687 6.265625 21.40234375 C7.08546875 21.41394531 7.9053125 21.42554687 8.75 21.4375 C7.48025028 17.02227891 7.48025028 17.02227891 4.75 13.4375 C-3.16956043 11.45760989 -10.73138243 13.667483 -18.25 16.4375 C-19.55492469 12.27805256 -20.37019705 8.78713091 -20.25 4.4375 C-13.55350979 1.13350483 -7.37940879 0.0302745 0 0 Z M-6.25 35.4375 C-8.56031109 38.18099442 -9.31884817 39.47362565 -9.0625 43.0625 C-8.28755004 45.6579806 -8.28755004 45.6579806 -6.25 48.4375 C-2.29492944 49.50232669 0.08944908 49.65344934 4 48.375 C7.39114987 45.98578077 8.41787818 44.35985868 9.75 40.4375 C9.97080827 37.71419806 9.89177256 35.17843614 9.75 32.4375 C3.61500911 32.06188831 -0.86903809 32.31654209 -6.25 35.4375 Z " fill="#383435" transform="translate(449.25,34.5625)"/>
<path d="M0 0 C1.06250977 0.00193359 1.06250977 0.00193359 2.14648438 0.00390625 C7.48701642 0.10216811 11.44244263 0.93997131 16.1875 3.3125 C15.93087755 4.75260481 15.65659179 6.1895687 15.375 7.625 C15.22417969 8.42550781 15.07335937 9.22601563 14.91796875 10.05078125 C14.11177764 12.54695587 13.16697998 13.63672106 11.1875 15.3125 C10.65511719 14.98636719 10.12273437 14.66023438 9.57421875 14.32421875 C6.58253412 13.05605783 4.23956758 13.08159532 1 13.125 C-0.06605469 13.13144531 -1.13210938 13.13789062 -2.23046875 13.14453125 C-4.74276661 13.02286229 -4.74276661 13.02286229 -5.8125 14.3125 C-5.85313832 15.97867115 -5.855221 17.64638095 -5.8125 19.3125 C-5.24217041 19.59971924 -4.67184082 19.88693848 -4.08422852 20.18286133 C-1.50921415 21.48678912 1.05785754 22.80564659 3.625 24.125 C4.52283203 24.57681641 5.42066406 25.02863281 6.34570312 25.49414062 C7.19970703 25.93564453 8.05371094 26.37714844 8.93359375 26.83203125 C9.72435303 27.23526611 10.5151123 27.63850098 11.32983398 28.05395508 C13.1875 29.3125 13.1875 29.3125 14.1875 32.3125 C14.8475 32.3125 15.5075 32.3125 16.1875 32.3125 C18.75692866 37.13017873 18.72594622 41.99641188 18.1875 47.3125 C16.50112476 52.2779382 13.68653375 55.6414947 9.1875 58.3125 C-0.06066702 62.30566365 -9.0643065 61.75667682 -18.8125 60.3125 C-18.8125 59.6525 -18.8125 58.9925 -18.8125 58.3125 C-20.4625 57.9825 -22.1125 57.6525 -23.8125 57.3125 C-23.30452991 52.9947542 -22.61567221 49.27947886 -20.8125 45.3125 C-17.80096851 45.87716215 -14.94583962 46.56823585 -12 47.4375 C-7.6427404 48.55580807 -4.21198875 48.16152415 0.1875 47.3125 C1.54368499 46.18715895 1.54368499 46.18715895 1.25 43.25 C1.229375 42.280625 1.20875 41.31125 1.1875 40.3125 C0.02992188 39.74402344 -1.12765625 39.17554688 -2.3203125 38.58984375 C-3.85979107 37.8107174 -5.3988305 37.03072293 -6.9375 36.25 C-8.07832031 35.6940918 -8.07832031 35.6940918 -9.2421875 35.12695312 C-14.54566944 32.40663265 -18.51798685 29.34641121 -21.8125 24.3125 C-23.40017614 19.26929342 -22.76598422 15.31303557 -20.9609375 10.4609375 C-16.59494927 2.29327245 -8.73271436 -0.0653524 0 0 Z " fill="#3C393A" transform="translate(322.8125,34.6875)"/>
<path d="M0 0 C0.68191406 -0.01611328 1.36382813 -0.03222656 2.06640625 -0.04882812 C7.11230243 -0.05363374 10.60524327 1.0762235 15.125 3.3125 C14.795 7.2725 14.465 11.2325 14.125 15.3125 C9.125 14.3125 9.125 14.3125 6.125 13.3125 C4.25186336 13.21911782 2.37545638 13.18255157 0.5 13.1875 C-0.48226562 13.18492188 -1.46453125 13.18234375 -2.4765625 13.1796875 C-4.82725011 13.04244035 -4.82725011 13.04244035 -5.875 14.3125 C-5.91563832 15.97867115 -5.917721 17.64638095 -5.875 19.3125 C-4.71742188 19.88097656 -3.55984375 20.44945313 -2.3671875 21.03515625 C-0.82770893 21.8142826 0.7113305 22.59427707 2.25 23.375 C3.39082031 23.9309082 3.39082031 23.9309082 4.5546875 24.49804688 C10.73920028 27.67027541 15.86203347 31.52360042 18.125 38.3125 C18.52513509 44.31452636 17.80907013 47.94435975 15.125 53.3125 C14.465 53.3125 13.805 53.3125 13.125 53.3125 C13.125 53.9725 13.125 54.6325 13.125 55.3125 C11.54425436 56.13002303 9.96028777 56.94131997 8.375 57.75 C7.49328125 58.20246094 6.6115625 58.65492187 5.703125 59.12109375 C-4.30897476 63.74789743 -13.93750614 60.80152606 -23.875 57.3125 C-23.35473634 52.92742059 -22.77636124 48.63751905 -21.875 44.3125 C-20.94558594 44.61285156 -20.01617188 44.91320312 -19.05859375 45.22265625 C-17.20427734 45.79306641 -17.20427734 45.79306641 -15.3125 46.375 C-13.48525391 46.94927734 -13.48525391 46.94927734 -11.62109375 47.53515625 C-7.0562331 48.48240053 -3.1036443 48.42682215 1.125 46.3125 C1.125 44.3325 1.125 42.3525 1.125 40.3125 C-0.03 39.735 -1.185 39.1575 -2.375 38.5625 C-3.10332031 38.19511719 -3.83164062 37.82773438 -4.58203125 37.44921875 C-6.04829395 36.72233213 -7.52429077 36.01456219 -9.01171875 35.33203125 C-14.60561664 32.72154557 -18.22438345 29.73340427 -21.75 24.5625 C-23.57398019 19.2932239 -22.87948592 14.63867793 -20.6875 9.5625 C-14.82787983 2.28848875 -9.10299842 -0.04253738 0 0 Z " fill="#3C3839" transform="translate(625.875,34.6875)"/>
<path d="M0 0 C0 4.95 0 9.9 0 15 C4.29 15 8.58 15 13 15 C13 18.96 13 22.92 13 27 C8.71 27 4.42 27 0 27 C0.0934535 31.3786383 0.19952754 35.75673196 0.31738281 40.13476562 C0.35569998 41.62458889 0.39054808 43.11450554 0.421875 44.60449219 C0.46746729 46.74448048 0.52546874 48.88382436 0.5859375 51.0234375 C0.63306885 52.95582275 0.63306885 52.95582275 0.68115234 54.92724609 C0.68458268 58.10481505 0.68458268 58.10481505 3 60 C5.43252661 60.46162427 5.43252661 60.46162427 8.125 60.625 C10.538125 60.810625 10.538125 60.810625 13 61 C13 64.96 13 68.92 13 73 C5.04813325 75.65062225 -1.35967631 76.03972523 -9.015625 72.34375 C-13.10071475 69.57746875 -14.47259282 65.58222154 -16 61 C-16.08481773 58.41369776 -16.11598229 55.85521944 -16.09765625 53.26953125 C-16.0962413 52.51911057 -16.09482635 51.76868988 -16.09336853 50.99552917 C-16.0877756 48.6011454 -16.07522444 46.20685547 -16.0625 43.8125 C-16.05748408 42.18815239 -16.05292134 40.56380332 -16.04882812 38.93945312 C-16.03780848 34.95959931 -16.02054873 30.97981556 -16 27 C-18.64 27 -21.28 27 -24 27 C-24 23.04 -24 19.08 -24 15 C-21.36 15 -18.72 15 -16 15 C-16 11.37 -16 7.74 -16 4 C-13.70922959 3.33011414 -11.41748541 2.66396838 -9.125 2 C-8.47402344 1.80921875 -7.82304687 1.6184375 -7.15234375 1.421875 C-2.2265625 0 -2.2265625 0 0 0 Z " fill="#3A3738" transform="translate(368,21)"/>
<path d="M0 0 C0 4.95 0 9.9 0 15 C4.62 15 9.24 15 14 15 C14 18.96 14 22.92 14 27 C9.38 27 4.76 27 0 27 C0.11385102 31.56302904 0.24061323 36.12506902 0.375 40.6875 C0.4059375 41.98107422 0.436875 43.27464844 0.46875 44.60742188 C0.50742187 45.85458984 0.54609375 47.10175781 0.5859375 48.38671875 C0.63306885 50.10701294 0.63306885 50.10701294 0.68115234 51.86206055 C0.99423652 54.94327872 1.69670803 57.2082114 3 60 C6.3 60.33 9.6 60.66 13 61 C13 64.96 13 68.92 13 73 C6.04126409 75.78349436 -0.31547432 75.96164361 -7.17578125 73.0234375 C-11.21997198 70.75453392 -13.39453785 68.12580899 -14.640625 63.75073242 C-16.08206313 56.06475762 -16.23438569 48.61674851 -16.125 40.8125 C-16.11597656 39.57435547 -16.10695313 38.33621094 -16.09765625 37.06054688 C-16.07433276 34.04015489 -16.04160477 31.02018601 -16 28 C-18.64 27.67 -21.28 27.34 -24 27 C-24 23.04 -24 19.08 -24 15 C-21.36 14.67 -18.72 14.34 -16 14 C-16.020625 12.72125 -16.04125 11.4425 -16.0625 10.125 C-16.125 6.25 -16.125 6.25 -15 4 C-12.88262268 3.21066478 -10.72945068 2.51582879 -8.5625 1.875 C-7.38816406 1.52179687 -6.21382812 1.16859375 -5.00390625 0.8046875 C-2 0 -2 0 0 0 Z " fill="#3A3738" transform="translate(670,21)"/>
<path d="M0 0 C0 4.95 0 9.9 0 15 C-1.381875 15.103125 -2.76375 15.20625 -4.1875 15.3125 C-8.13392825 15.76547054 -10.89372017 16.36436863 -14 19 C-16.23812336 23.26174751 -16.34048199 27.43220346 -16.4140625 32.14453125 C-16.43342865 32.91431808 -16.4527948 33.68410492 -16.4727478 34.47721863 C-16.53225623 36.92220171 -16.57881295 39.36723262 -16.625 41.8125 C-16.66320631 43.47593134 -16.70225957 45.13934347 -16.7421875 46.80273438 C-16.83951982 50.86838633 -16.91931395 54.93384762 -17 59 C-22.28 59 -27.56 59 -33 59 C-33.495 30.29 -33.495 30.29 -34 1 C-29.38 1 -24.76 1 -20 1 C-19.34 2.98 -18.68 4.96 -18 7 C-17.2575 6.21625 -16.515 5.4325 -15.75 4.625 C-10.53165891 -0.35614377 -6.9854092 -0.20545321 0 0 Z " fill="#383536" transform="translate(422,35)"/>
<path d="M0 0 C4.7142968 1.42554333 6.3785055 5.03408715 8.65844727 9.09033203 C10.9453125 13.45127462 10.9453125 13.45127462 10.9453125 15.890625 C11.6053125 16.220625 12.2653125 16.550625 12.9453125 16.890625 C13.6053125 18.540625 14.2653125 20.190625 14.9453125 21.890625 C15.2753125 14.960625 15.6053125 8.030625 15.9453125 0.890625 C18.9153125 0.890625 21.8853125 0.890625 24.9453125 0.890625 C25.9453125 1.890625 25.9453125 1.890625 26.05883789 5.76782227 C26.05867871 7.49756667 26.05298099 9.22731581 26.04296875 10.95703125 C26.0415538 11.86565414 26.04013885 12.77427704 26.03868103 13.71043396 C26.03306443 16.62469721 26.02050915 19.53888481 26.0078125 22.453125 C26.00279964 24.42382702 25.99823636 26.39453024 25.99414062 28.36523438 C25.98308961 33.20706059 25.96581388 38.04882995 25.9453125 42.890625 C22.3153125 42.890625 18.6853125 42.890625 14.9453125 42.890625 C12.96549481 39.43266289 10.98642931 35.97427414 9.0078125 32.515625 C8.44384766 31.53078125 7.87988281 30.5459375 7.29882812 29.53125 C6.76064453 28.59023437 6.22246094 27.64921875 5.66796875 26.6796875 C5.17047119 25.81037598 4.67297363 24.94106445 4.16040039 24.04541016 C3.38949913 22.67832667 2.64719654 21.29439307 1.9453125 19.890625 C1.6153125 27.480625 1.2853125 35.070625 0.9453125 42.890625 C-2.0246875 42.890625 -4.9946875 42.890625 -8.0546875 42.890625 C-9.95091952 40.99439298 -9.18366376 38.22692141 -9.19363403 35.7043457 C-9.1916098 34.83769287 -9.18958557 33.97104004 -9.1875 33.078125 C-9.18845673 32.19406982 -9.18941345 31.31001465 -9.19039917 30.39916992 C-9.19108101 28.52620371 -9.18922643 26.65323514 -9.18505859 24.78027344 C-9.17971039 21.90294112 -9.18500343 19.02576492 -9.19140625 16.1484375 C-9.19074547 14.33333299 -9.18946431 12.51822857 -9.1875 10.703125 C-9.18952423 9.83647217 -9.19154846 8.96981934 -9.19363403 8.0769043 C-9.16292954 0.30837368 -7.59679306 0.03966994 0 0 Z " fill="#322F30" transform="translate(551.0546875,125.109375)"/>
<path d="M0 0 C3.63 0 7.26 0 11 0 C13.74380252 3.15796139 15.20386589 5.35566992 17 9 C18.12257114 11.02218357 19.24755091 13.04303202 20.375 15.0625 C21.24125 16.691875 22.1075 18.32125 23 20 C23.33 13.4 23.66 6.8 24 0 C27.3 0 30.6 0 34 0 C34 13.86 34 27.72 34 42 C30.37 42 26.74 42 23 42 C22.34 40.68 21.68 39.36 21 38 C20.34 37.34 19.68 36.68 19 36 C18.3134596 34.78905291 17.66927671 33.55369138 17.0546875 32.3046875 C16.70019531 31.58925781 16.34570312 30.87382812 15.98046875 30.13671875 C15.43326172 29.01716797 15.43326172 29.01716797 14.875 27.875 C14.31619141 26.74384766 14.31619141 26.74384766 13.74609375 25.58984375 C12.82712281 23.72833851 11.91308786 21.864398 11 20 C10.97494385 20.63091553 10.9498877 21.26183105 10.92407227 21.91186523 C10.80845863 24.75396825 10.68557684 27.59571083 10.5625 30.4375 C10.52318359 31.43072266 10.48386719 32.42394531 10.44335938 33.44726562 C10.40146484 34.39150391 10.35957031 35.33574219 10.31640625 36.30859375 C10.26141968 37.62041626 10.26141968 37.62041626 10.20532227 38.95874023 C10 41 10 41 9 42 C6.03 42 3.06 42 0 42 C0 28.14 0 14.28 0 0 Z M9 16 C10 18 10 18 10 18 Z " fill="#3D393A" transform="translate(288,126)"/>
<path d="M0 0 C5.24628231 2.8706073 9.02473446 5.31655152 11.25 11 C13.28362366 18.28715146 12.29329023 25.46844346 8.60546875 32.05859375 C4.69136021 37.36806425 -0.39462263 39.35281195 -6.6875 40.8125 C-9.4662783 41.04899177 -12.21313092 41.04907369 -15 41 C-15.71478516 40.99935547 -16.42957031 40.99871094 -17.16601562 40.99804688 C-22.40529123 40.95360439 -22.40529123 40.95360439 -24.6875 39.8125 C-24.6875 26.6125 -24.6875 13.4125 -24.6875 -0.1875 C-17.74421722 -2.50192759 -7.00025043 -2.42000845 0 0 Z M-13.6875 7.8125 C-13.6875 15.7325 -13.6875 23.6525 -13.6875 31.8125 C-7.46278129 32.21223928 -7.46278129 32.21223928 -2.6875 29.8125 C-0.03657529 26.27793371 1.04824938 23.21667697 1.3125 18.8125 C0.61851196 14.78736936 -0.12058156 12.4627888 -2.8125 9.375 C-6.31363934 7.17581557 -6.31363934 7.17581557 -13.6875 7.8125 Z " fill="#434041" transform="translate(396.6875,127.1875)"/>
<path d="M0 0 C5.36941848 3.11707814 8.6079351 7.15193031 10.5859375 13.0859375 C10.73241832 15.35357324 10.8069001 17.62626116 10.8359375 19.8984375 C10.86171875 21.10113281 10.8875 22.30382812 10.9140625 23.54296875 C10.36857879 29.4328941 8.06258724 33.14246054 3.5859375 36.8984375 C2.9053125 37.48238281 2.2246875 38.06632812 1.5234375 38.66796875 C-3.36211626 42.24348491 -9.64668731 41.72919354 -15.4140625 41.0859375 C-21.1159052 38.95578048 -24.51196351 35.42579964 -27.4140625 30.0859375 C-28.55736763 26.65602212 -28.61787901 23.8872959 -28.6640625 20.2734375 C-28.70273437 18.46939453 -28.70273437 18.46939453 -28.7421875 16.62890625 C-28.14914739 10.22548503 -25.20458274 6.20801306 -20.4140625 2.0859375 C-14.58017488 -2.04047082 -6.65008605 -2.51799375 0 0 Z M-14.7890625 9.9609375 C-18.34560529 14.61180115 -17.88976849 19.41027294 -17.4140625 25.0859375 C-16.0308738 28.16667598 -14.7756058 29.7243942 -12.4140625 32.0859375 C-8.43262094 32.5283199 -6.28289572 32.74899443 -3.0390625 30.2734375 C0.39383259 25.65223257 -0.06172794 20.5999734 -0.4140625 15.0859375 C-1.4922222 11.10504014 -1.91583207 10.41809112 -5.4140625 8.0859375 C-10.4971624 7.52067102 -10.4971624 7.52067102 -14.7890625 9.9609375 Z " fill="#423F40" transform="translate(483.4140625,126.9140625)"/>
<path d="M0 0 C5.28 0 10.56 0 16 0 C16 19.14 16 38.28 16 58 C10.72 58 5.44 58 0 58 C0 38.86 0 19.72 0 0 Z " fill="#373435" transform="translate(577,36)"/>
<path d="M0 0 C4.29 0 8.58 0 13 0 C15 5 15 5 15 8 C15.66 8.33 16.32 8.66 17 9 C17.71435874 11.44022545 18.32096965 13.83544272 18.875 16.3125 C20.32611921 22.50889001 22.065933 28.46774857 24.265625 34.44921875 C25 37 25 37 25 42 C21.37 42 17.74 42 14 42 C12.515 37.05 12.515 37.05 11 32 C7.7 31.67 4.4 31.34 1 31 C0.86722656 31.71027344 0.73445312 32.42054688 0.59765625 33.15234375 C0.42105469 34.07144531 0.24445312 34.99054688 0.0625 35.9375 C-0.11152344 36.85402344 -0.28554688 37.77054688 -0.46484375 38.71484375 C-1 41 -1 41 -2 42 C-3.68608966 42.07205511 -5.37500659 42.08386068 -7.0625 42.0625 C-7.98160156 42.05347656 -8.90070312 42.04445312 -9.84765625 42.03515625 C-10.55792969 42.02355469 -11.26820313 42.01195312 -12 42 C-11.38855804 36.8779274 -10.27729554 32.09904442 -8.75 27.16796875 C-8.42273926 26.0912365 -8.42273926 26.0912365 -8.08886719 24.99275208 C-7.6306714 23.48865189 -7.17002559 21.98529604 -6.70703125 20.48266602 C-5.99714366 18.17822774 -5.29482469 15.87158613 -4.59375 13.56445312 C-4.14626856 12.09882538 -3.69836689 10.63332586 -3.25 9.16796875 C-3.03956055 8.47841599 -2.82912109 7.78886322 -2.61230469 7.07841492 C-1.11711644 2.23423288 -1.11711644 2.23423288 0 0 Z M6 12 C5.49833923 13.64532788 4.99871553 15.29127699 4.5 16.9375 C4.2215625 17.85402344 3.943125 18.77054688 3.65625 19.71484375 C2.95399619 21.76393845 2.95399619 21.76393845 3 23 C4.98 23 6.96 23 9 23 C8.34 19.37 7.68 15.74 7 12 C6.67 12 6.34 12 6 12 Z " fill="#474344" transform="translate(847,126)"/>
<path d="M0 0 C1.5631897 0.00785522 1.5631897 0.00785522 3.15795898 0.01586914 C4.28266602 0.0190918 5.40737305 0.02231445 6.56616211 0.02563477 C7.75016602 0.03401367 8.93416992 0.04239258 10.15405273 0.05102539 C11.34192383 0.05553711 12.52979492 0.06004883 13.75366211 0.06469727 C16.69967499 0.07652864 19.64558954 0.09301252 22.59155273 0.11352539 C22.59155273 3.08352539 22.59155273 6.05352539 22.59155273 9.11352539 C17.64155273 9.11352539 12.69155273 9.11352539 7.59155273 9.11352539 C7.59155273 11.42352539 7.59155273 13.73352539 7.59155273 16.11352539 C12.54155273 16.11352539 17.49155273 16.11352539 22.59155273 16.11352539 C22.59155273 19.08352539 22.59155273 22.05352539 22.59155273 25.11352539 C17.64155273 25.11352539 12.69155273 25.11352539 7.59155273 25.11352539 C7.59155273 27.75352539 7.59155273 30.39352539 7.59155273 33.11352539 C12.87155273 33.11352539 18.15155273 33.11352539 23.59155273 33.11352539 C23.59155273 36.08352539 23.59155273 39.05352539 23.59155273 42.11352539 C19.27906664 42.14239076 14.96660512 42.16027794 10.65405273 42.17602539 C9.42235352 42.1844043 8.1906543 42.1927832 6.92163086 42.20141602 C5.75180664 42.20463867 4.58198242 42.20786133 3.37670898 42.21118164 C1.75067749 42.21903687 1.75067749 42.21903687 0.09179688 42.22705078 C-2.40844727 42.11352539 -2.40844727 42.11352539 -3.40844727 41.11352539 C-3.5095508 38.16816969 -3.54814006 35.24674979 -3.54125977 32.30102539 C-3.54221649 31.41697021 -3.54317322 30.53291504 -3.54415894 29.62207031 C-3.54484078 27.7491041 -3.5429862 25.87613553 -3.53881836 24.00317383 C-3.53347016 21.12584152 -3.5387632 18.24866531 -3.54516602 15.37133789 C-3.54450523 13.55623338 -3.54322407 11.74112896 -3.54125977 9.92602539 C-3.543284 9.05937256 -3.54530823 8.19271973 -3.5473938 7.29980469 C-3.51919754 0.16588209 -3.51919754 0.16588209 0 0 Z " fill="#262223" transform="translate(629.408447265625,125.886474609375)"/>
<path d="M0 0 C1.24652344 -0.01417969 2.49304688 -0.02835937 3.77734375 -0.04296875 C7.0625 0.1875 7.0625 0.1875 10.0625 2.1875 C9.7325 5.1575 9.4025 8.1275 9.0625 11.1875 C7.7425 10.8575 6.4225 10.5275 5.0625 10.1875 C3.48038427 10.12201508 1.89579919 10.10171619 0.3125 10.125 C-0.88632812 10.13853516 -0.88632812 10.13853516 -2.109375 10.15234375 C-2.71265625 10.16394531 -3.3159375 10.17554688 -3.9375 10.1875 C-3.9375 11.5075 -3.9375 12.8275 -3.9375 14.1875 C-3.27363281 14.41824219 -2.60976563 14.64898437 -1.92578125 14.88671875 C7.82518384 18.48817009 7.82518384 18.48817009 11.0625 23.1875 C11.99316236 27.18511786 12.0625 31.09979902 12.0625 35.1875 C10.41796875 36.7578125 10.41796875 36.7578125 8.25 38.3125 C7.18845703 39.08980469 7.18845703 39.08980469 6.10546875 39.8828125 C0.92827118 43.18909163 -5.01613813 42.52296582 -10.9375 42.1875 C-14.6875 41.1875 -14.6875 41.1875 -16.9375 40.1875 C-16.0625 33.4375 -16.0625 33.4375 -14.9375 31.1875 C-14.1125 31.3525 -13.2875 31.5175 -12.4375 31.6875 C-8.52477683 32.24646045 -4.88566827 32.25557187 -0.9375 32.1875 C-0.6075 30.8675 -0.2775 29.5475 0.0625 28.1875 C-0.84113281 27.72859375 -1.74476563 27.2696875 -2.67578125 26.796875 C-3.8674477 26.17758377 -5.05883966 25.55776415 -6.25 24.9375 C-7.42175781 24.33421875 -8.59351563 23.7309375 -9.80078125 23.109375 C-13.81212515 20.6516151 -15.45374921 18.77696687 -16.8125 14.3125 C-16.9710431 10.34892245 -16.09493227 8.49556281 -13.9375 5.1875 C-9.09646534 0.81876141 -6.48084444 0.03344089 0 0 Z " fill="#464344" transform="translate(716.9375,125.8125)"/>
<path d="M0 0 C3.63 0 7.26 0 11 0 C11 13.86 11 27.72 11 42 C7.37 42 3.74 42 0 42 C0 28.14 0 14.28 0 0 Z " fill="#504D4E" transform="translate(777,126)"/>
<path d="M0 0 C3.63 0 7.26 0 11 0 C11 13.86 11 27.72 11 42 C7.37 42 3.74 42 0 42 C0 28.14 0 14.28 0 0 Z " fill="#504D4E" transform="translate(227,126)"/>
<path d="M0 0 C14.42946998 -0.04925467 28.85086648 0.0226888 43.27758789 0.31738281 C46.17000464 0.37465359 49.0624788 0.42174373 51.95507812 0.46875 C61.1005495 0.64232347 70.19031991 0.97244783 79.30708694 1.73791695 C96.05947534 3.11954925 112.72128946 3.26737361 129.51296139 3.20278788 C133.41791458 3.19000675 137.32287336 3.18908905 141.22784424 3.18673706 C148.57221294 3.18060061 155.91651978 3.16429987 163.26086164 3.14403808 C171.64344666 3.12143007 180.02603516 3.11062406 188.40864325 3.10064721 C205.60579753 3.07992344 222.80289216 3.04490575 240 3 C240 3.33 240 3.66 240 4 C212.55757042 5.14717901 185.11634305 5.18769761 157.65380859 5.18530273 C152.59420135 5.18522219 147.53468604 5.19206547 142.47509766 5.20581055 C94.93871265 5.3328176 47.42804557 4.38966383 0 1 C0 0.67 0 0.34 0 0 Z " fill="#95C2D7" transform="translate(347,263)"/>
<path d="M0 0 C2.69990662 1.79993774 4.5418865 3.083773 6 6 C6.52981019 9.97357645 6.31881474 11.54170381 4 14.875 C0.6574165 17.24266331 -1.06013415 17.75726358 -5.0625 17.484375 C-8.52395669 16.61901083 -10.01181405 14.85801731 -12 12 C-12.7446324 8.02862719 -12.37266878 6.55900317 -10.125 3.1875 C-6.82233621 -0.21230096 -4.68601439 -0.45941318 0 0 Z " fill="#474445" transform="translate(588,12)"/>
<path d="M0 0 C1.32 0.66 2.64 1.32 4 2 C0.31027127 6.42767448 -3.52970892 7.21098697 -8.984375 8.45117188 C-11.0191442 9.00521271 -12.82927564 9.72664613 -14.75 10.59375 C-15.4409375 10.90183594 -16.131875 11.20992187 -16.84375 11.52734375 C-17.5553125 11.84832031 -18.266875 12.16929688 -19 12.5 C-20.41531183 13.13842871 -21.83194206 13.77394432 -23.25 14.40625 C-23.87390625 14.68791016 -24.4978125 14.96957031 -25.140625 15.25976562 C-27.07103279 16.02827881 -28.97569931 16.54094951 -31 17 C-28.32920269 13.7892581 -25.07806613 12.49022748 -21.3125 10.8125 C-19.54326172 10.01779297 -19.54326172 10.01779297 -17.73828125 9.20703125 C-16.83464844 8.80871094 -15.93101562 8.41039063 -15 8 C-16.98 7.34 -18.96 6.68 -21 6 C-21 6.66 -21 7.32 -21 8 C-31.25813951 10.31794499 -41.51689458 11.78630735 -51.9609375 12.99731445 C-52.95867187 13.11421631 -53.95640625 13.23111816 -54.984375 13.3515625 C-55.87866211 13.45291504 -56.77294922 13.55426758 -57.69433594 13.65869141 C-60.15283476 13.95433453 -60.15283476 13.95433453 -63 15 C-64.56118428 15.06740865 -66.1250252 15.08514456 -67.6875 15.0625 C-68.89986328 15.04896484 -68.89986328 15.04896484 -70.13671875 15.03515625 C-71.05904297 15.01775391 -71.05904297 15.01775391 -72 15 C-72 14.67 -72 14.34 -72 14 C-69.20052083 13.44010417 -66.40104167 12.88020833 -63.6015625 12.3203125 C-62.45429688 12.09085938 -61.30703125 11.86140625 -60.125 11.625 C-56.78230567 10.95646113 -53.43961655 10.28792763 -50.09643555 9.62182617 C-48.26321105 9.25367804 -46.43091548 8.88076269 -44.60083008 8.49731445 C-35.09606909 6.52164607 -25.4888489 5.07564826 -15.90698242 3.52905273 C-13.47776023 3.13619107 -11.04939048 2.73837973 -8.62109375 2.33984375 C-7.87016953 2.22003647 -7.1192453 2.10022919 -6.3455658 1.97679138 C-2.87796511 1.65666317 -2.87796511 1.65666317 0 0 Z " fill="#E8C797" transform="translate(210,89)"/>
<path d="M0 0 C-1 3 -1 3 -3 5 C-8.54810379 6.46861571 -14.25854981 7.31034866 -20 7 C-20 7.66 -20 8.32 -20 9 C-20.6798999 9.14099121 -21.3597998 9.28198242 -22.06030273 9.42724609 C-25.18617076 10.07584578 -28.31183624 10.72541664 -31.4375 11.375 C-33.04141602 11.70757812 -33.04141602 11.70757812 -34.67773438 12.046875 C-39.31473623 13.0111445 -43.94826891 13.98002564 -48.56640625 15.03125 C-53.85026813 16.21423098 -59.1692713 17.17933854 -64.5 18.125 C-65.48097656 18.30675781 -66.46195313 18.48851562 -67.47265625 18.67578125 C-73.41521386 19.72819159 -78.96564214 20.18701522 -85 20 C-85 19.67 -85 19.34 -85 19 C-84.14696289 18.84966309 -83.29392578 18.69932617 -82.41503906 18.54443359 C-66.90590626 15.79910543 -51.41522647 12.98667061 -36 9.75 C-34.8027832 9.50427246 -33.60556641 9.25854492 -32.37207031 9.00537109 C-31.27991211 8.77156738 -30.18775391 8.53776367 -29.0625 8.296875 C-27.62583984 7.99281738 -27.62583984 7.99281738 -26.16015625 7.68261719 C-25.44730469 7.45735352 -24.73445312 7.23208984 -24 7 C-23.67 6.34 -23.34 5.68 -23 5 C-33.395 5.495 -33.395 5.495 -44 6 C-44 5.67 -44 5.34 -44 5 C-43.25314941 4.91435791 -42.50629883 4.82871582 -41.73681641 4.74047852 C-38.36574873 4.35171109 -34.99538037 3.95717962 -31.625 3.5625 C-30.449375 3.42779297 -29.27375 3.29308594 -28.0625 3.15429688 C-26.38027344 2.95610352 -26.38027344 2.95610352 -24.6640625 2.75390625 C-23.62717285 2.63345947 -22.5902832 2.5130127 -21.52197266 2.38891602 C-19.01207334 2.1333991 -19.01207334 2.1333991 -17 1 C-11.34434825 0.0495689 -5.72120315 -0.10402188 0 0 Z " fill="#FBECD0" transform="translate(655,191)"/>
<path d="M0 0 C0 0.66 0 1.32 0 2 C-0.99 2 -1.98 2 -3 2 C-3.33 2.66 -3.66 3.32 -4 4 C-6.46877458 4.74848212 -8.88340672 5.37575109 -11.39453125 5.9453125 C-12.13829514 6.12005096 -12.88205902 6.29478943 -13.64836121 6.474823 C-15.22534505 6.84346643 -16.80328804 7.20802672 -18.38208008 7.56884766 C-20.79420274 8.12081304 -23.2028556 8.68624947 -25.61132812 9.25390625 C-27.14304187 9.61018118 -28.67493746 9.96567542 -30.20703125 10.3203125 C-30.92695755 10.48902863 -31.64688385 10.65774475 -32.3886261 10.83157349 C-35.71654871 11.58697131 -38.5634315 12 -42 12 C-42 11.34 -42 10.68 -42 10 C-40.35 9.67 -38.7 9.34 -37 9 C-37 8.34 -37 7.68 -37 7 C-38.74410156 7.2165625 -38.74410156 7.2165625 -40.5234375 7.4375 C-51.73903452 8.76114572 -62.71220295 9.24274832 -74 9 C-74 8.67 -74 8.34 -74 8 C-72.93378418 7.89453857 -71.86756836 7.78907715 -70.76904297 7.68041992 C-46.19410052 5.29685233 -46.19410052 5.29685233 -21.6875 2.3125 C-20.80755371 2.19350342 -19.92760742 2.07450684 -19.02099609 1.9519043 C-14.8835011 1.42180269 -14.8835011 1.42180269 -11 0 C-9.50650886 -0.25077277 -8.00471429 -0.45400974 -6.5 -0.625 C-5.7059375 -0.72039062 -4.911875 -0.81578125 -4.09375 -0.9140625 C-2 -1 -2 -1 0 0 Z " fill="#8EBDD5" transform="translate(876,226)"/>
<path d="M0 0 C1.5631897 0.00785522 1.5631897 0.00785522 3.15795898 0.01586914 C4.28266602 0.0190918 5.40737305 0.02231445 6.56616211 0.02563477 C7.75016602 0.03401367 8.93416992 0.04239258 10.15405273 0.05102539 C11.34192383 0.05553711 12.52979492 0.06004883 13.75366211 0.06469727 C16.69967499 0.07652864 19.64558954 0.09301252 22.59155273 0.11352539 C22.59155273 3.08352539 22.59155273 6.05352539 22.59155273 9.11352539 C17.64155273 9.11352539 12.69155273 9.11352539 7.59155273 9.11352539 C7.59155273 11.42352539 7.59155273 13.73352539 7.59155273 16.11352539 C12.54155273 16.11352539 17.49155273 16.11352539 22.59155273 16.11352539 C22.59155273 19.08352539 22.59155273 22.05352539 22.59155273 25.11352539 C17.64155273 25.11352539 12.69155273 25.11352539 7.59155273 25.11352539 C7.59155273 27.75352539 7.59155273 30.39352539 7.59155273 33.11352539 C7.26155273 33.11352539 6.93155273 33.11352539 6.59155273 33.11352539 C6.59155273 30.14352539 6.59155273 27.17352539 6.59155273 24.11352539 C11.54155273 24.11352539 16.49155273 24.11352539 21.59155273 24.11352539 C21.59155273 21.80352539 21.59155273 19.49352539 21.59155273 17.11352539 C16.64155273 17.11352539 11.69155273 17.11352539 6.59155273 17.11352539 C6.59155273 14.14352539 6.59155273 11.17352539 6.59155273 8.11352539 C11.54155273 8.11352539 16.49155273 8.11352539 21.59155273 8.11352539 C21.59155273 6.13352539 21.59155273 4.15352539 21.59155273 2.11352539 C14.00155273 2.11352539 6.41155273 2.11352539 -1.40844727 2.11352539 C-1.40844727 14.98352539 -1.40844727 27.85352539 -1.40844727 41.11352539 C6.84155273 41.11352539 15.09155273 41.11352539 23.59155273 41.11352539 C23.59155273 41.44352539 23.59155273 41.77352539 23.59155273 42.11352539 C19.27906664 42.14239076 14.96660512 42.16027794 10.65405273 42.17602539 C9.42235352 42.1844043 8.1906543 42.1927832 6.92163086 42.20141602 C5.75180664 42.20463867 4.58198242 42.20786133 3.37670898 42.21118164 C1.75067749 42.21903687 1.75067749 42.21903687 0.09179688 42.22705078 C-2.40844727 42.11352539 -2.40844727 42.11352539 -3.40844727 41.11352539 C-3.5095508 38.16816969 -3.54814006 35.24674979 -3.54125977 32.30102539 C-3.54221649 31.41697021 -3.54317322 30.53291504 -3.54415894 29.62207031 C-3.54484078 27.7491041 -3.5429862 25.87613553 -3.53881836 24.00317383 C-3.53347016 21.12584152 -3.5387632 18.24866531 -3.54516602 15.37133789 C-3.54450523 13.55623338 -3.54322407 11.74112896 -3.54125977 9.92602539 C-3.543284 9.05937256 -3.54530823 8.19271973 -3.5473938 7.29980469 C-3.51919754 0.16588209 -3.51919754 0.16588209 0 0 Z " fill="#B3B1B2" transform="translate(629.408447265625,125.886474609375)"/>
<path d="M0 0 C1.47906892 -0.02689216 2.95827483 -0.04634621 4.4375 -0.0625 C5.26121094 -0.07410156 6.08492187 -0.08570312 6.93359375 -0.09765625 C9 0 9 0 10 1 C10.08871273 4.02977804 10.1151935 7.03667022 10.09765625 10.06640625 C10.0962413 10.97502914 10.09482635 11.88365204 10.09336853 12.81980896 C10.08775193 15.73407221 10.07519665 18.64825981 10.0625 21.5625 C10.05748714 23.53320202 10.05292386 25.50390524 10.04882812 27.47460938 C10.03777711 32.31643559 10.02050138 37.15820495 10 42 C6.37 42 2.74 42 -1 42 C-1 41.01 -1 40.02 -1 39 C1.97 39.33 4.94 39.66 8 40 C8 27.46 8 14.92 8 2 C5.69 2 3.38 2 1 2 C1 10.25 1 18.5 1 27 C-1.00553195 22.9889361 -1.21279316 21.83027682 -0.9765625 17.578125 C-0.925 16.55332031 -0.8734375 15.52851563 -0.8203125 14.47265625 C-0.75585938 13.40917969 -0.69140625 12.34570312 -0.625 11.25 C-0.56828125 10.17105469 -0.5115625 9.09210938 -0.453125 7.98046875 C-0.31184116 5.31962301 -0.16044734 2.65974769 0 0 Z " fill="#A9A7A8" transform="translate(567,126)"/>
<path d="M0 0 C3.63 0 7.26 0 11 0 C11 0.33 11 0.66 11 1 C7.7 1 4.4 1 1 1 C1 13.87 1 26.74 1 40 C3.31 40 5.62 40 8 40 C8 30.76 8 21.52 8 12 C8.66 12.33 9.32 12.66 10 13 C10.02465881 16.96930989 10.04284023 20.93859034 10.05493164 24.90795898 C10.05997057 26.25920386 10.06680177 27.61044326 10.07543945 28.96166992 C10.08752419 30.90020434 10.09269828 32.838778 10.09765625 34.77734375 C10.10289307 35.94515381 10.10812988 37.11296387 10.11352539 38.31616211 C10 41 10 41 9 42 C6.03 42 3.06 42 0 42 C0 28.14 0 14.28 0 0 Z " fill="#A6A4A5" transform="translate(288,126)"/>
<path d="M0 0 C0 0.66 0 1.32 0 2 C-10.25813951 4.31794499 -20.51689458 5.78630735 -30.9609375 6.99731445 C-31.95867187 7.11421631 -32.95640625 7.23111816 -33.984375 7.3515625 C-34.87866211 7.45291504 -35.77294922 7.55426758 -36.69433594 7.65869141 C-39.15283476 7.95433453 -39.15283476 7.95433453 -42 9 C-43.56118428 9.06740865 -45.1250252 9.08514456 -46.6875 9.0625 C-47.89986328 9.04896484 -47.89986328 9.04896484 -49.13671875 9.03515625 C-50.05904297 9.01775391 -50.05904297 9.01775391 -51 9 C-51 8.67 -51 8.34 -51 8 C-46.80078125 7.16015625 -46.80078125 7.16015625 -42.6015625 6.3203125 C-41.45429688 6.09085937 -40.30703125 5.86140625 -39.125 5.625 C-32.4453125 4.2890625 -32.4453125 4.2890625 -29.1550293 3.63134766 C-27.12767116 3.2256564 -25.10047594 2.81914966 -23.07348633 2.41162109 C-22.19200928 2.23453613 -21.31053223 2.05745117 -20.40234375 1.875 C-19.63398193 1.7203125 -18.86562012 1.565625 -18.07397461 1.40625 C-11.97832302 0.2122342 -6.18672383 -0.12625967 0 0 Z " fill="#7EA6B7" transform="translate(189,95)"/>
<path d="M0 0 C1.28132812 0.00902344 2.56265625 0.01804688 3.8828125 0.02734375 C5.36394531 0.04474609 5.36394531 0.04474609 6.875 0.0625 C4.03234873 2.90515127 0.67312493 3.2910894 -3.125 4.1875 C-4.23101563 4.46013672 -4.23101563 4.46013672 -5.359375 4.73828125 C-10.81555451 6.0625 -10.81555451 6.0625 -13.125 6.0625 C-13.125 5.4025 -13.125 4.7425 -13.125 4.0625 C-23.52 4.5575 -23.52 4.5575 -34.125 5.0625 C-34.125 4.7325 -34.125 4.4025 -34.125 4.0625 C-33.37814941 3.97685791 -32.63129883 3.89121582 -31.86181641 3.80297852 C-28.49074873 3.41421109 -25.12038037 3.01967962 -21.75 2.625 C-20.574375 2.49029297 -19.39875 2.35558594 -18.1875 2.21679688 C-16.50527344 2.01860352 -16.50527344 2.01860352 -14.7890625 1.81640625 C-13.75217285 1.69595947 -12.7152832 1.5755127 -11.64697266 1.45141602 C-2.11066501 -0.01918786 -2.11066501 -0.01918786 0 0 Z " fill="#F1C489" transform="translate(645.125,191.9375)"/>
<path d="M0 0 C1.0118335 0.05986084 2.02366699 0.11972168 3.06616211 0.18139648 C13.89756649 0.821023 24.72980205 1.44521015 35.5625 2.0625 C37.17122474 2.15428325 38.7799487 2.24608007 40.38867188 2.33789062 C44.25910573 2.55874927 48.12954982 2.77942768 52 3 C51.67 3.66 51.34 4.32 51 5 C48.14576808 5.02718316 45.29179985 5.04692705 42.4375 5.0625 C41.23770508 5.07506836 41.23770508 5.07506836 40.01367188 5.08789062 C35.22836896 5.10742247 30.71854949 4.80437018 26 4 C26 4.33 26 4.66 26 5 C20.56180283 5.15846402 15.5347975 4.5896469 10.1875 3.625 C9.42501953 3.49867188 8.66253906 3.37234375 7.87695312 3.2421875 C2.2465343 2.2465343 2.2465343 2.2465343 0 0 Z " fill="#F5F3E3" transform="translate(288,217)"/>
<path d="M0 0 C1.51400391 0.01740234 1.51400391 0.01740234 3.05859375 0.03515625 C4.07050781 0.04417969 5.08242188 0.05320312 6.125 0.0625 C7.29869141 0.07990234 7.29869141 0.07990234 8.49609375 0.09765625 C9.15609375 1.74765625 9.81609375 3.39765625 10.49609375 5.09765625 C9.50609375 4.76765625 8.51609375 4.43765625 7.49609375 4.09765625 C7.49609375 3.43765625 7.49609375 2.77765625 7.49609375 2.09765625 C4.19609375 2.09765625 0.89609375 2.09765625 -2.50390625 2.09765625 C-2.50390625 14.96765625 -2.50390625 27.83765625 -2.50390625 41.09765625 C-2.83390625 41.09765625 -3.16390625 41.09765625 -3.50390625 41.09765625 C-3.5285533 35.41935547 -3.54674087 29.74108556 -3.55883789 24.06274414 C-3.56387881 22.1294704 -3.57071144 20.19620049 -3.5793457 18.26293945 C-3.5914219 15.49038753 -3.59713682 12.71788584 -3.6015625 9.9453125 C-3.60672379 9.07552261 -3.61188507 8.20573273 -3.61720276 7.30958557 C-3.6173981 5.23859811 -3.56598793 3.16771301 -3.50390625 1.09765625 C-2.50390625 0.09765625 -2.50390625 0.09765625 0 0 Z " fill="#F8F7F8" transform="translate(545.50390625,125.90234375)"/>
<path d="M0 0 C0 0.66 0 1.32 0 2 C-0.99 2 -1.98 2 -3 2 C-3.33 2.66 -3.66 3.32 -4 4 C-6.64860427 4.59355614 -9.29197322 4.74209269 -12 5 C-12 4.67 -12 4.34 -12 4 C-12.85658203 4.10828125 -12.85658203 4.10828125 -13.73046875 4.21875 C-20.83666412 5.03217777 -27.85302234 5.10081943 -35 5 C-35 4.67 -35 4.34 -35 4 C-34.01604248 3.87153687 -34.01604248 3.87153687 -33.01220703 3.74047852 C-30.049303 3.35153499 -27.08715747 2.95708727 -24.125 2.5625 C-23.09246094 2.42779297 -22.05992187 2.29308594 -20.99609375 2.15429688 C-20.00996094 2.02216797 -19.02382813 1.89003906 -18.0078125 1.75390625 C-17.09660645 1.63345947 -16.18540039 1.5130127 -15.24658203 1.38891602 C-12.97266576 1.10637049 -12.97266576 1.10637049 -11 0 C-9.50650886 -0.25077277 -8.00471429 -0.45400974 -6.5 -0.625 C-5.30890625 -0.76808594 -5.30890625 -0.76808594 -4.09375 -0.9140625 C-2 -1 -2 -1 0 0 Z " fill="#B4D5E6" transform="translate(876,226)"/>
<path d="M0 0 C-2.90487797 1.93658531 -4.01159319 2.334758 -7.31640625 2.78125 C-8.15840576 2.90008545 -9.00040527 3.0189209 -9.86791992 3.14135742 C-10.75713135 3.25970947 -11.64634277 3.37806152 -12.5625 3.5 C-20.66271932 4.62479816 -20.66271932 4.62479816 -28.6875 6.1875 C-33.18071953 7.15662578 -37.41206086 7.14799804 -42 7 C-42 6.67 -42 6.34 -42 6 C-41.02651611 5.823479 -40.05303223 5.64695801 -39.05004883 5.46508789 C-35.42512955 4.80766189 -31.80031759 4.14964587 -28.17553711 3.49145508 C-26.60915991 3.2071153 -25.04275398 2.92293376 -23.47631836 2.63891602 C-21.21981281 2.22974972 -18.96341252 1.82000727 -16.70703125 1.41015625 C-16.01100296 1.28407486 -15.31497467 1.15799347 -14.59785461 1.02809143 C-11.77692817 0.51522505 -8.96506687 -0.00757821 -6.1628418 -0.61547852 C-3.78193438 -1.03876886 -2.27524673 -0.75841558 0 0 Z " fill="#FBEBCE" transform="translate(612,204)"/>
<path d="M0 0 C1.85625 0.0309375 1.85625 0.0309375 3.75 0.0625 C-0.66454787 4.47704787 -9.36086452 4.88685777 -15.3984375 5.25390625 C-17.69093722 5.25062187 -19.96225556 5.20482512 -22.25 5.0625 C-22.25 4.0725 -22.25 3.0825 -22.25 2.0625 C-21.28578125 2.00191406 -20.3215625 1.94132813 -19.328125 1.87890625 C-18.06484375 1.79511719 -16.8015625 1.71132812 -15.5 1.625 C-14.24703125 1.54378906 -12.9940625 1.46257812 -11.703125 1.37890625 C-7.6853523 1.01076192 -4.04943813 -0.06749064 0 0 Z " fill="#196EA3" transform="translate(862.25,228.9375)"/>
<path d="M0 0 C-0.33 0.99 -0.66 1.98 -1 3 C-4.96 3.66 -8.92 4.32 -13 5 C-13 4.34 -13 3.68 -13 3 C-16.96 2.67 -20.92 2.34 -25 2 C-25 1.67 -25 1.34 -25 1 C-16.64251778 0.15672251 -8.39802254 -0.12190678 0 0 Z " fill="#ED9D3F" transform="translate(632,196)"/>
<path d="M0 0 C0 0.66 0 1.32 0 2 C-2.39370625 2.53293837 -4.78908438 3.0515817 -7.1875 3.5625 C-8.19780273 3.78969727 -8.19780273 3.78969727 -9.22851562 4.02148438 C-13.17187834 4.84862875 -16.11420184 5.03986148 -20 4 C-21.9996441 3.96227087 -24.00054061 3.95350094 -26 4 C-23.18620531 1.18620531 -20.8553815 1.36914722 -16.9375 0.875 C-15.92901001 0.74762451 -15.92901001 0.74762451 -14.90014648 0.61767578 C-9.88823383 0.01940015 -5.03800794 -0.17677221 0 0 Z " fill="#B7B5A0" transform="translate(189,95)"/>
<path d="M0 0 C1.32 0.66 2.64 1.32 4 2 C0.76224269 5.88530878 -2.14647942 6.83155986 -7 8 C-7.99 8.495 -7.99 8.495 -9 9 C-9.66 8.34 -10.32 7.68 -11 7 C-9.68 6.34 -8.36 5.68 -7 5 C-8.65 4.67 -10.3 4.34 -12 4 C-12 3.67 -12 3.34 -12 3 C-10.82630859 2.80083984 -10.82630859 2.80083984 -9.62890625 2.59765625 C-8.61699219 2.42105469 -7.60507813 2.24445313 -6.5625 2.0625 C-5.55316406 1.88847656 -4.54382813 1.71445313 -3.50390625 1.53515625 C-1.0712562 1.25248903 -1.0712562 1.25248903 0 0 Z " fill="#F4E4C9" transform="translate(210,89)"/>
<path d="M0 0 C-3.14357035 3.14357035 -7.14758437 3.58999786 -11.375 4.6875 C-12.23867187 4.92533203 -13.10234375 5.16316406 -13.9921875 5.40820312 C-14.8275 5.62798828 -15.6628125 5.84777344 -16.5234375 6.07421875 C-17.28575684 6.27619873 -18.04807617 6.47817871 -18.83349609 6.6862793 C-21.19407926 7.02810366 -22.74828266 6.73022624 -25 6 C-24 4 -24 4 -21.1875 3 C-14.29502454 1.20196292 -7.13629264 -0.18298186 0 0 Z " fill="#196590" transform="translate(155,102)"/>
<path d="M0 0 C0.66 0.33 1.32 0.66 2 1 C1.54109375 1.42410156 1.0821875 1.84820312 0.609375 2.28515625 C-4.40260054 7.07601523 -9.13484241 11.66813009 -9.375 19 C-9.17781452 22.88303711 -8.22601312 26.32196064 -7 30 C-8.32 29.34 -9.64 28.68 -11 28 C-11.63312137 19.75769774 -11.91899122 13.52913727 -6.66796875 6.84375 C-4.51184934 4.46040489 -2.37639687 2.16671479 0 0 Z " fill="#F9E5C1" transform="translate(168,112)"/>
<path d="M0 0 C-2.31 0.33 -4.62 0.66 -7 1 C-7 1.66 -7 2.32 -7 3 C-5.35 3 -3.7 3 -2 3 C-2.33 3.66 -2.66 4.32 -3 5 C-4.64574566 5.02688151 -6.29161413 5.04634123 -7.9375 5.0625 C-8.85402344 5.07410156 -9.77054688 5.08570312 -10.71484375 5.09765625 C-13 5 -13 5 -14 4 C-16.33297433 3.95907063 -18.66705225 3.95758277 -21 4 C-17.61847808 2.10203794 -14.26563452 1.19776958 -10.5 0.3125 C-9.3759375 0.04050781 -8.251875 -0.23148437 -7.09375 -0.51171875 C-4.2315358 -0.9634571 -2.67758663 -0.97784414 0 0 Z " fill="#80A7B3" transform="translate(138,105)"/>
<path d="M0 0 C5.61 0 11.22 0 17 0 C16 7 16 7 14 10 C14.33 7.36 14.66 4.72 15 2 C10.38 2 5.76 2 1 2 C0.67 2.66 0.34 3.32 0 4 C0 2.68 0 1.36 0 0 Z " fill="#8B898A" transform="translate(555,14)"/>
<path d="M0 0 C0.66 0.66 1.32 1.32 2 2 C4.74485593 2.14507695 7.38480543 2.18652423 10.125 2.125 C11.25615234 2.11146484 11.25615234 2.11146484 12.41015625 2.09765625 C14.27357254 2.0740687 16.13682593 2.03819719 18 2 C18.33 1.34 18.66 0.68 19 0 C19.33 1.32 19.66 2.64 20 4 C13.4 4 6.8 4 0 4 C0 2.68 0 1.36 0 0 Z " fill="#B2B0B1" transform="translate(250,57)"/>
<path d="M0 0 C8.80426458 0.31328058 16.74720228 0.61045808 25 4 C21.70239806 5.07138687 19.39570374 4.90279404 16.015625 4.22265625 C14.61376953 3.94711914 14.61376953 3.94711914 13.18359375 3.66601562 C12.21550781 3.46685547 11.24742187 3.26769531 10.25 3.0625 C9.26644531 2.86720703 8.28289062 2.67191406 7.26953125 2.47070312 C4.84471679 1.98809442 2.42177227 1.49761141 0 1 C0 0.67 0 0.34 0 0 Z " fill="#A88952" transform="translate(193,204)"/>
<path d="M0 0 C2.64 0 5.28 0 8 0 C7 3 7 3 5 5 C2.63969304 5.45847689 0.2601826 5.82143131 -2.125 6.125 C-3.40632812 6.29257813 -4.68765625 6.46015625 -6.0078125 6.6328125 C-6.99523437 6.75398437 -7.98265625 6.87515625 -9 7 C-8 5 -8 5 -5.49609375 4.1484375 C-4.48675781 3.89320313 -3.47742188 3.63796875 -2.4375 3.375 C-1.42558594 3.11460937 -0.41367187 2.85421875 0.62890625 2.5859375 C1.41136719 2.39257812 2.19382812 2.19921875 3 2 C2.01 1.34 1.02 0.68 0 0 Z " fill="#FCF6E5" transform="translate(647,191)"/>
<path d="M0 0 C0.99 0.33 1.98 0.66 3 1 C-1.455 6.94 -1.455 6.94 -6 13 C-6.33 12.01 -6.66 11.02 -7 10 C-5.8203125 7.7734375 -5.8203125 7.7734375 -4.125 5.375 C-3.57070313 4.57835937 -3.01640625 3.78171875 -2.4453125 2.9609375 C-1 1 -1 1 0 0 Z " fill="#5396BF" transform="translate(20,151)"/>
<path d="M0 0 C2.0625 0.4375 2.0625 0.4375 4 1 C3.01 1 2.02 1 1 1 C1 1.66 1 2.32 1 3 C-0.53125 4.2890625 -0.53125 4.2890625 -2.5 5.625 C-3.47453125 6.29402344 -3.47453125 6.29402344 -4.46875 6.9765625 C-4.9740625 7.31429687 -5.479375 7.65203125 -6 8 C-6 7.01 -6 6.02 -6 5 C-6.99 5 -7.98 5 -9 5 C-9 5.66 -9 6.32 -9 7 C-10.98 7.33 -12.96 7.66 -15 8 C-11.24378353 4.48612007 -7.72180918 3.04503948 -2.890625 1.61328125 C-1.01003989 1.16151501 -1.01003989 1.16151501 0 0 Z " fill="#B98B46" transform="translate(122,112)"/>
<path d="M0 0 C-2.6860286 1.79068573 -4.6626589 2.66055791 -7.6875 3.625 C-8.49574219 3.88539062 -9.30398437 4.14578125 -10.13671875 4.4140625 C-10.75160156 4.60742188 -11.36648437 4.80078125 -12 5 C-12 3 -12 1 -12 -1 C-7.28400182 -1.92470553 -4.32734391 -2.22923777 0 0 Z " fill="#126898" transform="translate(129,110)"/>
<path d="M0 0 C2.31 0.33 4.62 0.66 7 1 C4.47043472 4.0916909 1.77545388 4.90931332 -2 6 C-2 5.01 -2 4.02 -2 3 C-3.65 3 -5.3 3 -7 3 C-7 2.67 -7 2.34 -7 2 C-4.69 2 -2.38 2 0 2 C0 1.34 0 0.68 0 0 Z " fill="#E9932F" transform="translate(189,95)"/>
<path d="M0 0 C2.48018753 2.48018753 2.32361558 3.38515951 2.375 6.8125 C2.31060502 10.52057752 2.0892369 11.85127184 0.125 15.125 C-2 17 -2 17 -4 17 C-4.33 17.66 -4.66 18.32 -5 19 C-5.66 18.34 -6.32 17.68 -7 17 C-6.06414062 16.89751953 -6.06414062 16.89751953 -5.109375 16.79296875 C-2.80675547 16.19903543 -2.80675547 16.19903543 -1.953125 13.92578125 C-0.6776449 9.18524688 0.39173744 4.96200761 0 0 Z " fill="#7C7A7B" transform="translate(397,141)"/>
<path d="M0 0 C-1.09283577 1.03295436 -2.19970579 2.05107835 -3.3125 3.0625 C-3.92738281 3.63097656 -4.54226562 4.19945312 -5.17578125 4.78515625 C-5.77777344 5.18605469 -6.37976563 5.58695313 -7 6 C-7.99 5.67 -8.98 5.34 -10 5 C-12.00875442 5.27571139 -14.01178687 5.60235737 -16 6 C-13.10600531 3.65788337 -10.32844572 2.13137829 -6.875 0.75 C-6.00617187 0.39421875 -5.13734375 0.0384375 -4.2421875 -0.328125 C-2 -1 -2 -1 0 0 Z " fill="#65A2C5" transform="translate(67,125)"/>
<path d="M0 0 C0 0.66 0 1.32 0 2 C-5.94 2.495 -5.94 2.495 -12 3 C-12 3.66 -12 4.32 -12 5 C-14.64 5 -17.28 5 -20 5 C-16.76168874 3.20958752 -13.58584892 2.26249761 -10 1.375 C-8.96875 1.11460938 -7.9375 0.85421875 -6.875 0.5859375 C-4 0 -4 0 0 0 Z " fill="#C58F45" transform="translate(169,100)"/>
<path d="M0 0 C0.66 0.33 1.32 0.66 2 1 C1.09373216 2.2989839 0.17450463 3.58893167 -0.75 4.875 C-1.51570313 5.95394531 -1.51570313 5.95394531 -2.296875 7.0546875 C-4.07503547 9.08570565 -5.52701607 9.97855012 -8 11 C-6.52670958 5.99081256 -3.72484762 3.48192278 0 0 Z " fill="#BC8C46" transform="translate(89,130)"/>
<path d="M0 0 C1.27617188 0.02320313 2.55234375 0.04640625 3.8671875 0.0703125 C5.78917969 0.09738281 5.78917969 0.09738281 7.75 0.125 C9.23113281 0.15980469 9.23113281 0.15980469 10.7421875 0.1953125 C8.07844503 2.85905497 6.47753653 2.84944685 2.7421875 3.1953125 C0.03937574 2.99114327 -2.57500712 2.61160989 -5.2578125 2.1953125 C-3.2578125 0.1953125 -3.2578125 0.1953125 0 0 Z " fill="#F2DAB5" transform="translate(641.2578125,191.8046875)"/>
<path d="M0 0 C2.79224073 -0.08071788 5.58216566 -0.14035408 8.375 -0.1875 C9.1690625 -0.21263672 9.963125 -0.23777344 10.78125 -0.26367188 C12.85586148 -0.29004405 14.93100865 -0.15486462 17 0 C17.66 0.99 18.32 1.98 19 3 C12.73 2.34 6.46 1.68 0 1 C0 0.67 0 0.34 0 0 Z " fill="#BD9C68" transform="translate(269,215)"/>
<path d="M0 0 C3.63 0 7.26 0 11 0 C11.66 1.65 12.32 3.3 13 5 C12.01 4.67 11.02 4.34 10 4 C10 3.34 10 2.68 10 2 C6.7 2 3.4 2 0 2 C0 1.34 0 0.68 0 0 Z " fill="#9D9B9C" transform="translate(543,126)"/>
<path d="M0 0 C5.61 0.33 11.22 0.66 17 1 C17 1.33 17 1.66 17 2 C10.73960391 2.93213141 5.97802937 3.20927172 0 1 C0 0.67 0 0.34 0 0 Z " fill="#E2E0CD" transform="translate(288,217)"/>
<path d="M0 0 C0 0.66 0 1.32 0 2 C-0.99 2 -1.98 2 -3 2 C-3.33 2.66 -3.66 3.32 -4 4 C-4.33 3.67 -4.66 3.34 -5 3 C-6.34747084 2.76924918 -7.70377565 2.58846937 -9.0625 2.4375 C-10.361875 2.293125 -11.66125 2.14875 -13 2 C-10.63546807 -0.36453193 -9.74130071 -0.36652704 -6.5 -0.6875 C-5.7059375 -0.77386719 -4.911875 -0.86023438 -4.09375 -0.94921875 C-2 -1 -2 -1 0 0 Z " fill="#E1EEF1" transform="translate(876,226)"/>
<path d="M0 0 C0.79921875 0.01804687 1.5984375 0.03609375 2.421875 0.0546875 C3.02515625 0.07789062 3.6284375 0.10109375 4.25 0.125 C3.92 1.115 3.59 2.105 3.25 3.125 C2.569375 2.96 1.88875 2.795 1.1875 2.625 C-2.1664822 2.05410941 -5.35389805 2.05840977 -8.75 2.125 C-5.68753253 0.34090198 -3.52920727 -0.10380021 0 0 Z " fill="#4991BC" transform="translate(125.75,106.875)"/>
<path d="M0 0 C0.515625 0.37125 1.03125 0.7425 1.5625 1.125 C1.2325 1.785 0.9025 2.445 0.5625 3.125 C-2.7375 2.795 -6.0375 2.465 -9.4375 2.125 C-9.4375 1.795 -9.4375 1.465 -9.4375 1.125 C-3.0375 -1.09038462 -3.0375 -1.09038462 0 0 Z " fill="#F8F5E8" transform="translate(212.4375,89.875)"/>
<path d="M0 0 C0 0.66 0 1.32 0 2 C0.66 2.33 1.32 2.66 2 3 C-1.63 2.67 -5.26 2.34 -9 2 C-5.23312136 0.11656068 -3.97041037 -0.22057835 0 0 Z " fill="#77B0CD" transform="translate(203,245)"/>
<path d="M0 0 C-7.0547046 4.07877462 -7.0547046 4.07877462 -11 3.75 C-11.66 3.5025 -12.32 3.255 -13 3 C-4.58823529 -1.52941176 -4.58823529 -1.52941176 0 0 Z " fill="#84B6D2" transform="translate(91,117)"/>
<path d="M0 0 C0.66 0.33 1.32 0.66 2 1 C-0.38957269 4.24299151 -2.2047869 6.50902342 -6 8 C-4.73058503 4.08597051 -3.48832306 2.20927127 0 0 Z " fill="#7E7C7D" transform="translate(433,61)"/>
<path d="M0 0 C-3.08888522 2.05925681 -3.70935927 2.2390374 -7.1875 2.125 C-9.0746875 2.063125 -9.0746875 2.063125 -11 2 C-6.98764085 -0.6749061 -4.6342454 -1.48957888 0 0 Z " fill="#BF8E48" transform="translate(149,106)"/>
<path d="M0 0 C0.66 0.33 1.32 0.66 2 1 C-0.38957269 4.24299151 -2.2047869 6.50902342 -6 8 C-4.55746343 4.63408134 -2.66735273 2.48952921 0 0 Z " fill="#7B797A" transform="translate(611,38)"/>
<path d="M0 0 C2.64 0 5.28 0 8 0 C8 0.66 8 1.32 8 2 C5.69 2.33 3.38 2.66 1 3 C0.67 2.01 0.34 1.02 0 0 Z " fill="#A1C5D6" transform="translate(863,228)"/>
<path d="M0 0 C2.31 0 4.62 0 7 0 C7 0.66 7 1.32 7 2 C7.66 2.33 8.32 2.66 9 3 C2.84765625 2.4140625 2.84765625 2.4140625 1 2 C0.67 1.34 0.34 0.68 0 0 Z " fill="#AB874E" transform="translate(117,183)"/>
<path d="M0 0 C0.33 0.99 0.66 1.98 1 3 C0.34 3.66 -0.32 4.32 -1 5 C-0.67 3.35 -0.34 1.7 0 0 Z " fill="#FDFDFD" transform="translate(853,143)"/>
<path d="M0 0 C4 1 4 1 4 1 Z " fill="#FDFCFE" transform="translate(867,225)"/>
<path d="M0 0 C1 4 1 4 1 4 Z " fill="#FDFDFD" transform="translate(654,163)"/>
<path d="M0 0 C0.33 0.66 0.66 1.32 1 2 C0.01 1.67 -0.98 1.34 -2 1 C-1.34 0.67 -0.68 0.34 0 0 Z " fill="#FDFDFD" transform="translate(432,35)"/>
<path d="M0 0 C3 1 3 1 3 1 Z " fill="#FFFDFC" transform="translate(336,222)"/>
<path d="M0 0 C0.33 0.66 0.66 1.32 1 2 C0.34 1.67 -0.32 1.34 -1 1 C-0.67 0.67 -0.34 0.34 0 0 Z " fill="#FDFEFD" transform="translate(713,136)"/>
<path d="" fill="#FDFCFD" transform="translate(0,0)"/>
<path d="" fill="#FDFDFD" transform="translate(0,0)"/>
<path d="" fill="#FDFDFD" transform="translate(0,0)"/>
<path d="" fill="#FDFDFD" transform="translate(0,0)"/>
<path d="M0 0 C3 1 3 1 3 1 Z " fill="#FEFDFE" transform="translate(655,23)"/>
<path d="" fill="#FDFCFB" transform="translate(0,0)"/>
<path d="" fill="#FEFEFE" transform="translate(0,0)"/>
<path d="" fill="#FEFCFE" transform="translate(0,0)"/>
<path d="" fill="#FDFDFD" transform="translate(0,0)"/>
<path d="" fill="#FEFDFD" transform="translate(0,0)"/>
<path d="" fill="#FDFEFD" transform="translate(0,0)"/>
<path d="M0 0 C2 1 2 1 2 1 Z " fill="#FDFDFD" transform="translate(713,153)"/>
<path d="M0 0 C2 1 2 1 2 1 Z " fill="#FEFEFE" transform="translate(711,152)"/>
<path d="" fill="#FEFEFE" transform="translate(0,0)"/>
<path d="" fill="#FEFEFE" transform="translate(0,0)"/>
<path d="" fill="#FEFCFD" transform="translate(0,0)"/>
<path d="" fill="#FEFDFE" transform="translate(0,0)"/>
<path d="" fill="#FDFDFD" transform="translate(0,0)"/>
<path d="M0 0 C2 1 2 1 2 1 Z " fill="#FDFDFD" transform="translate(403,95)"/>
<path d="" fill="#FDFDFD" transform="translate(0,0)"/>
<path d="" fill="#FEFDFD" transform="translate(0,0)"/>
<path d="" fill="#FEFEFE" transform="translate(0,0)"/>
<path d="M0 0 C2 1 2 1 2 1 Z " fill="#FDFCFC" transform="translate(623,81)"/>
<path d="M0 0 C2 1 2 1 2 1 Z " fill="#FEFEFE" transform="translate(269,73)"/>
<path d="M0 0 C2 1 2 1 2 1 Z " fill="#FEFEFE" transform="translate(248,73)"/>
<path d="M0 0 C2 1 2 1 2 1 Z " fill="#FDFCFD" transform="translate(317,72)"/>
<path d="" fill="#FDFDFD" transform="translate(0,0)"/>
<path d="" fill="#FDFDFD" transform="translate(0,0)"/>
<path d="M0 0 C2 1 2 1 2 1 Z " fill="#FDFDFD" transform="translate(433,59)"/>
<path d="M0 0 C2 1 2 1 2 1 Z " fill="#FDFDFD" transform="translate(413,51)"/>
<path d="M0 0 C2 1 2 1 2 1 Z " fill="#FDFDFD" transform="translate(672,49)"/>
<path d="" fill="#FEFDFD" transform="translate(0,0)"/>
<path d="" fill="#FDFDFD" transform="translate(0,0)"/>
<path d="" fill="#FDFDFD" transform="translate(0,0)"/>
<path d="" fill="#FDFEFE" transform="translate(0,0)"/>
<path d="" fill="#FEFEFE" transform="translate(0,0)"/>
<path d="M0 0 C2 1 2 1 2 1 Z " fill="#FDFDFD" transform="translate(833,36)"/>
<path d="" fill="#FDFDFD" transform="translate(0,0)"/>
<path d="" fill="#FEFEFE" transform="translate(0,0)"/>
<path d="" fill="#FDFCFD" transform="translate(0,0)"/>
<path d="" fill="#FDFDFD" transform="translate(0,0)"/>
<path d="M0 0 C2 1 2 1 2 1 Z " fill="#FDFDFD" transform="translate(666,20)"/>
<path d="" fill="#FDFDFD" transform="translate(0,0)"/>
<path d="M0 0 C2 1 2 1 2 1 Z " fill="#FDFDFD" transform="translate(590,12)"/>
<path d="M0 0 C2 1 2 1 2 1 Z " fill="#FCFEFD" transform="translate(503,12)"/>
<path d="M0 0 C2 1 2 1 2 1 Z " fill="#FDFBFC" transform="translate(251,12)"/>
<path d="" fill="#FBFCFB" transform="translate(0,0)"/>
<path d="" fill="#FAFEFE" transform="translate(0,0)"/>
<path d="" fill="#FEFDFC" transform="translate(0,0)"/>
<path d="" fill="#FDFDFE" transform="translate(0,0)"/>
<path d="" fill="#FEFEFA" transform="translate(0,0)"/>
<path d="" fill="#FDFFFD" transform="translate(0,0)"/>
<path d="" fill="#FCFCFC" transform="translate(0,0)"/>
<path d="" fill="#FEFCFD" transform="translate(0,0)"/>
<path d="" fill="#FDFDFD" transform="translate(0,0)"/>
<path d="" fill="#FDFDFD" transform="translate(0,0)"/>
<path d="" fill="#FEFBFC" transform="translate(0,0)"/>
<path d="" fill="#FEFEFE" transform="translate(0,0)"/>
<path d="" fill="#FDFDFD" transform="translate(0,0)"/>
<path d="" fill="#FDFDFD" transform="translate(0,0)"/>
<path d="" fill="#FDFDFD" transform="translate(0,0)"/>
<path d="" fill="#FEFEFE" transform="translate(0,0)"/>
<path d="" fill="#FCFAFC" transform="translate(0,0)"/>
<path d="" fill="#FDFDFE" transform="translate(0,0)"/>
<path d="" fill="#FDFEFE" transform="translate(0,0)"/>
<path d="" fill="#FDFCFC" transform="translate(0,0)"/>
<path d="" fill="#FDFDFD" transform="translate(0,0)"/>
<path d="" fill="#FDFCFC" transform="translate(0,0)"/>
<path d="" fill="#FFFDFE" transform="translate(0,0)"/>
<path d="" fill="#FEFEFE" transform="translate(0,0)"/>
<path d="" fill="#FBFBFB" transform="translate(0,0)"/>
<path d="" fill="#FDFDFD" transform="translate(0,0)"/>
<path d="" fill="#FEFEFE" transform="translate(0,0)"/>
<path d="" fill="#FEFDFD" transform="translate(0,0)"/>
<path d="" fill="#FDFDFD" transform="translate(0,0)"/>
<path d="" fill="#FCFEFD" transform="translate(0,0)"/>
<path d="" fill="#FEFEFE" transform="translate(0,0)"/>
<path d="" fill="#FEFEFE" transform="translate(0,0)"/>
<path d="" fill="#FCFCFC" transform="translate(0,0)"/>
<path d="" fill="#FDFDFD" transform="translate(0,0)"/>
<path d="" fill="#FDFDFD" transform="translate(0,0)"/>
<path d="" fill="#FDFDFD" transform="translate(0,0)"/>
<path d="" fill="#FEFEFD" transform="translate(0,0)"/>
<path d="" fill="#FEFCFD" transform="translate(0,0)"/>
<path d="" fill="#FDFEFD" transform="translate(0,0)"/>
<path d="" fill="#FEFEFE" transform="translate(0,0)"/>
<path d="" fill="#FDFBFC" transform="translate(0,0)"/>
<path d="" fill="#FEFCFD" transform="translate(0,0)"/>
<path d="" fill="#FEFDFE" transform="translate(0,0)"/>
<path d="" fill="#FDFDFD" transform="translate(0,0)"/>
<path d="" fill="#FDFDFD" transform="translate(0,0)"/>
<path d="" fill="#FDFEFD" transform="translate(0,0)"/>
<path d="" fill="#FCFCFC" transform="translate(0,0)"/>
<path d="" fill="#FDFCFD" transform="translate(0,0)"/>
<path d="" fill="#FEFCFD" transform="translate(0,0)"/>
<path d="" fill="#FEFDFD" transform="translate(0,0)"/>
<path d="" fill="#FDFDFD" transform="translate(0,0)"/>
<path d="" fill="#FDFDFC" transform="translate(0,0)"/>
<path d="" fill="#FDFDFD" transform="translate(0,0)"/>
<path d="" fill="#FEFEFE" transform="translate(0,0)"/>
<path d="" fill="#FDFDFD" transform="translate(0,0)"/>
<path d="" fill="#FEFDFE" transform="translate(0,0)"/>
<path d="" fill="#FCFCFC" transform="translate(0,0)"/>
<path d="" fill="#FEFDFE" transform="translate(0,0)"/>
<path d="" fill="#FDFDFD" transform="translate(0,0)"/>
<path d="" fill="#FDFDFD" transform="translate(0,0)"/>
<path d="" fill="#FDFDFD" transform="translate(0,0)"/>
<path d="" fill="#FCFCFC" transform="translate(0,0)"/>
<path d="" fill="#FBFBFB" transform="translate(0,0)"/>
<path d="" fill="#FEFEFE" transform="translate(0,0)"/>
<path d="" fill="#FDFDFD" transform="translate(0,0)"/>
<path d="" fill="#FDFDFD" transform="translate(0,0)"/>
<path d="" fill="#FDFDFD" transform="translate(0,0)"/>
<path d="" fill="#FDFDFD" transform="translate(0,0)"/>
<path d="" fill="#FDFDFD" transform="translate(0,0)"/>
<path d="" fill="#FDFCFD" transform="translate(0,0)"/>
<path d="" fill="#FDFDFD" transform="translate(0,0)"/>
<path d="" fill="#FEFEFE" transform="translate(0,0)"/>
<path d="" fill="#FEFEFE" transform="translate(0,0)"/>
<path d="" fill="#FDFDFD" transform="translate(0,0)"/>
<path d="" fill="#FDFCFD" transform="translate(0,0)"/>
<path d="" fill="#FDFDFD" transform="translate(0,0)"/>
<path d="" fill="#FDFBFC" transform="translate(0,0)"/>
<path d="" fill="#FDFDFD" transform="translate(0,0)"/>
<path d="" fill="#FEFDFE" transform="translate(0,0)"/>
<path d="" fill="#FBFBFB" transform="translate(0,0)"/>
<path d="" fill="#FDFDFD" transform="translate(0,0)"/>
<path d="" fill="#FCFCFC" transform="translate(0,0)"/>
<path d="" fill="#FDFDFD" transform="translate(0,0)"/>
<path d="" fill="#FEFCFD" transform="translate(0,0)"/>
<path d="" fill="#FEFEFE" transform="translate(0,0)"/>
<path d="" fill="#FDFEFD" transform="translate(0,0)"/>
<path d="" fill="#FEFCFD" transform="translate(0,0)"/>
<path d="" fill="#FEFDFD" transform="translate(0,0)"/>
<path d="" fill="#FEFEFE" transform="translate(0,0)"/>
<path d="" fill="#FCFCFC" transform="translate(0,0)"/>
<path d="" fill="#FEFDFE" transform="translate(0,0)"/>
<path d="" fill="#FCFCFC" transform="translate(0,0)"/>
<path d="" fill="#FDFDFD" transform="translate(0,0)"/>
<path d="" fill="#FEFEFE" transform="translate(0,0)"/>
<path d="" fill="#FDFBFC" transform="translate(0,0)"/>
<path d="" fill="#FDFDFD" transform="translate(0,0)"/>
<path d="" fill="#FDFEFE" transform="translate(0,0)"/>
<path d="" fill="#FDFCFD" transform="translate(0,0)"/>
<path d="" fill="#FEFCFD" transform="translate(0,0)"/>
<path d="" fill="#FEFEFE" transform="translate(0,0)"/>
<path d="" fill="#FDFCFD" transform="translate(0,0)"/>
<path d="" fill="#FDFDFD" transform="translate(0,0)"/>
<path d="" fill="#FEFEFE" transform="translate(0,0)"/>
<path d="" fill="#FCFCFC" transform="translate(0,0)"/>
<path d="" fill="#FEFEFE" transform="translate(0,0)"/>
<path d="" fill="#FEFEFE" transform="translate(0,0)"/>
<path d="" fill="#FEFEFE" transform="translate(0,0)"/>
<path d="" fill="#FDFCFD" transform="translate(0,0)"/>
<path d="" fill="#FDFDFD" transform="translate(0,0)"/>
<path d="" fill="#FEFCFD" transform="translate(0,0)"/>
<path d="" fill="#FEFDFE" transform="translate(0,0)"/>
<path d="" fill="#FDFCFD" transform="translate(0,0)"/>
<path d="" fill="#FDFDFD" transform="translate(0,0)"/>
<path d="" fill="#FEFCFD" transform="translate(0,0)"/>
<path d="" fill="#FEFEFE" transform="translate(0,0)"/>
<path d="" fill="#FDFDFD" transform="translate(0,0)"/>
<path d="" fill="#FEFEFE" transform="translate(0,0)"/>
<path d="" fill="#FDFDFD" transform="translate(0,0)"/>
<path d="" fill="#FDFDFD" transform="translate(0,0)"/>
<path d="" fill="#FEFEFE" transform="translate(0,0)"/>
<path d="" fill="#FDFDFD" transform="translate(0,0)"/>
<path d="" fill="#FCFBFC" transform="translate(0,0)"/>
<path d="" fill="#FEFEFE" transform="translate(0,0)"/>
<path d="" fill="#FEFCFD" transform="translate(0,0)"/>
<path d="" fill="#FDFEFD" transform="translate(0,0)"/>
<path d="" fill="#FCFCFC" transform="translate(0,0)"/>
<path d="" fill="#FEFEFE" transform="translate(0,0)"/>
<path d="" fill="#FDFDFD" transform="translate(0,0)"/>
<path d="" fill="#FDFDFD" transform="translate(0,0)"/>
<path d="" fill="#FDFDFD" transform="translate(0,0)"/>
<path d="" fill="#FDFDFD" transform="translate(0,0)"/>
<path d="" fill="#FEFEFE" transform="translate(0,0)"/>
<path d="" fill="#FDFDFD" transform="translate(0,0)"/>
<path d="" fill="#FDFDFD" transform="translate(0,0)"/>
<path d="" fill="#FDFDFD" transform="translate(0,0)"/>
<path d="" fill="#FDFDFD" transform="translate(0,0)"/>
<path d="" fill="#FEFEFE" transform="translate(0,0)"/>
<path d="" fill="#FDFDFD" transform="translate(0,0)"/>
<path d="" fill="#FEFEFE" transform="translate(0,0)"/>
<path d="" fill="#FDFDFD" transform="translate(0,0)"/>
<path d="" fill="#FDFDFD" transform="translate(0,0)"/>
<path d="" fill="#FCFCFC" transform="translate(0,0)"/>
<path d="" fill="#FDFDFD" transform="translate(0,0)"/>
<path d="" fill="#FEFEFE" transform="translate(0,0)"/>
<path d="" fill="#FEFEFE" transform="translate(0,0)"/>
<path d="" fill="#FDFDFD" transform="translate(0,0)"/>
<path d="" fill="#FDFCFD" transform="translate(0,0)"/>
<path d="" fill="#FDFDFD" transform="translate(0,0)"/>
<path d="" fill="#FDFDFD" transform="translate(0,0)"/>
<path d="" fill="#FEFDFD" transform="translate(0,0)"/>
<path d="" fill="#FEFEFE" transform="translate(0,0)"/>
<path d="" fill="#FDFEFD" transform="translate(0,0)"/>
<path d="" fill="#FBFBFC" transform="translate(0,0)"/>
<path d="" fill="#FEFEFE" transform="translate(0,0)"/>
<path d="" fill="#FDFDFD" transform="translate(0,0)"/>
<path d="" fill="#FDFCFD" transform="translate(0,0)"/>
<path d="" fill="#FCFCFC" transform="translate(0,0)"/>
<path d="" fill="#FDFBFC" transform="translate(0,0)"/>
<path d="" fill="#FEFEFE" transform="translate(0,0)"/>
<path d="" fill="#FEFEFE" transform="translate(0,0)"/>
<path d="" fill="#FDFDFD" transform="translate(0,0)"/>
<path d="" fill="#FEFDFE" transform="translate(0,0)"/>
<path d="" fill="#FDFDFD" transform="translate(0,0)"/>
<path d="" fill="#FEFCFD" transform="translate(0,0)"/>
<path d="" fill="#FCFCFC" transform="translate(0,0)"/>
<path d="" fill="#FDFDFD" transform="translate(0,0)"/>
<path d="" fill="#FCFCFC" transform="translate(0,0)"/>
<path d="" fill="#FDFDFD" transform="translate(0,0)"/>
<path d="" fill="#FBFBFB" transform="translate(0,0)"/>
<path d="" fill="#FCFCFC" transform="translate(0,0)"/>
<path d="" fill="#FDFDFD" transform="translate(0,0)"/>
<path d="" fill="#FDFDFD" transform="translate(0,0)"/>
<path d="" fill="#FEFDFE" transform="translate(0,0)"/>
<path d="" fill="#FDFDFD" transform="translate(0,0)"/>
<path d="" fill="#FDFEFE" transform="translate(0,0)"/>
<path d="" fill="#FCFCFC" transform="translate(0,0)"/>
<path d="" fill="#FEFEFE" transform="translate(0,0)"/>
<path d="" fill="#FCFEFD" transform="translate(0,0)"/>
<path d="" fill="#FDFEFE" transform="translate(0,0)"/>
<path d="" fill="#FEFCFD" transform="translate(0,0)"/>
<path d="" fill="#FBFBFB" transform="translate(0,0)"/>
<path d="" fill="#FDFDFD" transform="translate(0,0)"/>
<path d="" fill="#FDFDFD" transform="translate(0,0)"/>
<path d="" fill="#FDFDFD" transform="translate(0,0)"/>
<path d="" fill="#FDFDFD" transform="translate(0,0)"/>
<path d="" fill="#FDFDFD" transform="translate(0,0)"/>
<path d="" fill="#FDFDFD" transform="translate(0,0)"/>
<path d="" fill="#FEFEFE" transform="translate(0,0)"/>
<path d="" fill="#FDFDFD" transform="translate(0,0)"/>
<path d="" fill="#FCFCFC" transform="translate(0,0)"/>
<path d="" fill="#FDFDFD" transform="translate(0,0)"/>
<path d="" fill="#FCFCFC" transform="translate(0,0)"/>
<path d="" fill="#FCFCFC" transform="translate(0,0)"/>
<path d="" fill="#FDFDFD" transform="translate(0,0)"/>
<path d="" fill="#FDFDFD" transform="translate(0,0)"/>
<path d="" fill="#FEFEFE" transform="translate(0,0)"/>
<path d="" fill="#FDFDFD" transform="translate(0,0)"/>
<path d="" fill="#FEFEFE" transform="translate(0,0)"/>
<path d="" fill="#FFFDFE" transform="translate(0,0)"/>
<path d="" fill="#FEFEFE" transform="translate(0,0)"/>
<path d="" fill="#FEFEFE" transform="translate(0,0)"/>
<path d="" fill="#FDFDFD" transform="translate(0,0)"/>
<path d="" fill="#FDFDFD" transform="translate(0,0)"/>
<path d="" fill="#FDFDFD" transform="translate(0,0)"/>
<path d="" fill="#FCFCFC" transform="translate(0,0)"/>
<path d="" fill="#FDFDFD" transform="translate(0,0)"/>
</svg>
